solid CadrixAI_mdl_a83055cae4e4
  // Generated by CadrixAI
  // Author: Bhavyadeep Rao
  // Year: 2026
 facet normal  0.000000e+00 -1.000000e+00  0.000000e+00
   outer loop
     vertex  4.500000e+01 -6.000000e+01  0.000000e+00
     vertex -4.500000e+01 -6.000000e+01  8.000000e+00
     vertex -4.500000e+01 -6.000000e+01  0.000000e+00
   endloop
 endfacet
 facet normal  0.000000e+00 -1.000000e+00  0.000000e+00
   outer loop
     vertex  4.500000e+01 -6.000000e+01  0.000000e+00
     vertex  4.500000e+01 -6.000000e+01  8.000000e+00
     vertex -4.500000e+01 -6.000000e+01  8.000000e+00
   endloop
 endfacet
 facet normal -1.000000e+00  0.000000e+00  0.000000e+00
   outer loop
     vertex -4.500000e+01  6.000000e+01  0.000000e+00
     vertex -4.500000e+01  1.209768e+01  7.800000e+01
     vertex -4.500000e+01  6.000000e+01  7.800000e+01
   endloop
 endfacet
 facet normal -1.000000e+00  0.000000e+00  0.000000e+00
   outer loop
     vertex -4.500000e+01 -1.800000e+01  1.345531e+01
     vertex -4.500000e+01  1.209768e+01  7.800000e+01
     vertex -4.500000e+01  6.000000e+01  0.000000e+00
   endloop
 endfacet
 facet normal -1.000000e+00  0.000000e+00  0.000000e+00
   outer loop
     vertex -4.500000e+01 -1.800000e+01  8.000000e+00
     vertex -4.500000e+01 -1.800000e+01  1.345531e+01
     vertex -4.500000e+01  6.000000e+01  0.000000e+00
   endloop
 endfacet
 facet normal -1.000000e+00  0.000000e+00  0.000000e+00
   outer loop
     vertex -4.500000e+01 -5.520000e+01  8.000000e+00
     vertex -4.500000e+01 -2.880000e+01  1.600000e+01
     vertex -4.500000e+01 -2.880000e+01  8.000000e+00
   endloop
 endfacet
 facet normal -1.000000e+00  0.000000e+00  0.000000e+00
   outer loop
     vertex -4.500000e+01 -5.520000e+01  8.000000e+00
     vertex -4.500000e+01 -5.520000e+01  1.600000e+01
     vertex -4.500000e+01 -2.880000e+01  1.600000e+01
   endloop
 endfacet
 facet normal -1.000000e+00  0.000000e+00  0.000000e+00
   outer loop
     vertex -4.500000e+01 -6.000000e+01  0.000000e+00
     vertex -4.500000e+01 -6.000000e+01  8.000000e+00
     vertex -4.500000e+01 -5.520000e+01  8.000000e+00
   endloop
 endfacet
 facet normal -1.000000e+00  0.000000e+00  0.000000e+00
   outer loop
     vertex -4.500000e+01 -6.000000e+01  0.000000e+00
     vertex -4.500000e+01 -5.520000e+01  8.000000e+00
     vertex -4.500000e+01 -2.880000e+01  8.000000e+00
   endloop
 endfacet
 facet normal -1.000000e+00  0.000000e+00  0.000000e+00
   outer loop
     vertex -4.500000e+01 -6.000000e+01  0.000000e+00
     vertex -4.500000e+01 -1.800000e+01  8.000000e+00
     vertex -4.500000e+01  6.000000e+01  0.000000e+00
   endloop
 endfacet
 facet normal -1.000000e+00  0.000000e+00  0.000000e+00
   outer loop
     vertex -4.500000e+01 -6.000000e+01  0.000000e+00
     vertex -4.500000e+01 -2.880000e+01  8.000000e+00
     vertex -4.500000e+01 -1.800000e+01  8.000000e+00
   endloop
 endfacet
 facet normal  1.000000e+00  0.000000e+00  0.000000e+00
   outer loop
     vertex  4.500000e+01 -6.000000e+01  0.000000e+00
     vertex  4.500000e+01 -5.520000e+01  8.000000e+00
     vertex  4.500000e+01 -6.000000e+01  8.000000e+00
   endloop
 endfacet
 facet normal  1.000000e+00  0.000000e+00  0.000000e+00
   outer loop
     vertex  4.500000e+01 -2.880000e+01  8.000000e+00
     vertex  4.500000e+01 -5.520000e+01  1.600000e+01
     vertex  4.500000e+01 -5.520000e+01  8.000000e+00
   endloop
 endfacet
 facet normal  1.000000e+00  0.000000e+00 -0.000000e+00
   outer loop
     vertex  4.500000e+01 -2.880000e+01  8.000000e+00
     vertex  4.500000e+01 -2.880000e+01  1.600000e+01
     vertex  4.500000e+01 -5.520000e+01  1.600000e+01
   endloop
 endfacet
 facet normal  1.000000e+00  0.000000e+00  0.000000e+00
   outer loop
     vertex  4.500000e+01 -2.880000e+01  8.000000e+00
     vertex  4.500000e+01 -5.520000e+01  8.000000e+00
     vertex  4.500000e+01 -6.000000e+01  0.000000e+00
   endloop
 endfacet
 facet normal  1.000000e+00  0.000000e+00  0.000000e+00
   outer loop
     vertex  4.500000e+01  6.000000e+01  0.000000e+00
     vertex  4.500000e+01 -1.800000e+01  1.345531e+01
     vertex  4.500000e+01 -1.800000e+01  8.000000e+00
   endloop
 endfacet
 facet normal  1.000000e+00  0.000000e+00  0.000000e+00
   outer loop
     vertex  4.500000e+01  6.000000e+01  0.000000e+00
     vertex  4.500000e+01  1.209768e+01  7.800000e+01
     vertex  4.500000e+01 -1.800000e+01  1.345531e+01
   endloop
 endfacet
 facet normal  1.000000e+00  0.000000e+00 -0.000000e+00
   outer loop
     vertex  4.500000e+01  6.000000e+01  0.000000e+00
     vertex  4.500000e+01  6.000000e+01  7.800000e+01
     vertex  4.500000e+01  1.209768e+01  7.800000e+01
   endloop
 endfacet
 facet normal  1.000000e+00  0.000000e+00  0.000000e+00
   outer loop
     vertex  4.500000e+01  6.000000e+01  0.000000e+00
     vertex  4.500000e+01 -2.880000e+01  8.000000e+00
     vertex  4.500000e+01 -6.000000e+01  0.000000e+00
   endloop
 endfacet
 facet normal  1.000000e+00  0.000000e+00  0.000000e+00
   outer loop
     vertex  4.500000e+01  6.000000e+01  0.000000e+00
     vertex  4.500000e+01 -1.800000e+01  8.000000e+00
     vertex  4.500000e+01 -2.880000e+01  8.000000e+00
   endloop
 endfacet
 facet normal  0.000000e+00 -0.000000e+00 -1.000000e+00
   outer loop
     vertex -4.050000e+01 -2.880000e+01  0.000000e+00
     vertex -4.050000e+01 -5.520000e+01  0.000000e+00
     vertex -4.500000e+01 -6.000000e+01  0.000000e+00
   endloop
 endfacet
 facet normal  0.000000e+00 -0.000000e+00 -1.000000e+00
   outer loop
     vertex  4.050000e+01 -5.520000e+01  0.000000e+00
     vertex  4.500000e+01 -6.000000e+01  0.000000e+00
     vertex -4.500000e+01 -6.000000e+01  0.000000e+00
   endloop
 endfacet
 facet normal -0.000000e+00  0.000000e+00 -1.000000e+00
   outer loop
     vertex  4.050000e+01 -5.520000e+01  0.000000e+00
     vertex -4.500000e+01 -6.000000e+01  0.000000e+00
     vertex -4.050000e+01 -5.520000e+01  0.000000e+00
   endloop
 endfacet
 facet normal  0.000000e+00  0.000000e+00 -1.000000e+00
   outer loop
     vertex  4.050000e+01 -2.880000e+01  0.000000e+00
     vertex  4.500000e+01 -6.000000e+01  0.000000e+00
     vertex  4.050000e+01 -5.520000e+01  0.000000e+00
   endloop
 endfacet
 facet normal  0.000000e+00  0.000000e+00 -1.000000e+00
   outer loop
     vertex  4.500000e+01  6.000000e+01  0.000000e+00
     vertex  4.050000e+01 -2.880000e+01  0.000000e+00
     vertex -4.050000e+01 -2.880000e+01  0.000000e+00
   endloop
 endfacet
 facet normal -0.000000e+00  0.000000e+00 -1.000000e+00
   outer loop
     vertex  4.500000e+01  6.000000e+01  0.000000e+00
     vertex -4.050000e+01 -2.880000e+01  0.000000e+00
     vertex -4.500000e+01  6.000000e+01  0.000000e+00
   endloop
 endfacet
 facet normal  0.000000e+00  0.000000e+00 -1.000000e+00
   outer loop
     vertex  4.500000e+01 -6.000000e+01  0.000000e+00
     vertex  4.050000e+01 -2.880000e+01  0.000000e+00
     vertex  4.500000e+01  6.000000e+01  0.000000e+00
   endloop
 endfacet
 facet normal  0.000000e+00  0.000000e+00 -1.000000e+00
   outer loop
     vertex -4.500000e+01  6.000000e+01  0.000000e+00
     vertex -4.050000e+01 -2.880000e+01  0.000000e+00
     vertex -4.500000e+01 -6.000000e+01  0.000000e+00
   endloop
 endfacet
 facet normal  0.000000e+00  0.000000e+00  1.000000e+00
   outer loop
     vertex -4.050000e+01 -5.520000e+01  8.000000e+00
     vertex -4.500000e+01 -5.520000e+01  8.000000e+00
     vertex -4.500000e+01 -6.000000e+01  8.000000e+00
   endloop
 endfacet
 facet normal  0.000000e+00  0.000000e+00  1.000000e+00
   outer loop
     vertex  4.500000e+01 -6.000000e+01  8.000000e+00
     vertex -4.050000e+01 -5.520000e+01  8.000000e+00
     vertex -4.500000e+01 -6.000000e+01  8.000000e+00
   endloop
 endfacet
 facet normal  0.000000e+00  0.000000e+00  1.000000e+00
   outer loop
     vertex  4.050000e+01 -5.520000e+01  8.000000e+00
     vertex -4.050000e+01 -5.520000e+01  8.000000e+00
     vertex  4.500000e+01 -6.000000e+01  8.000000e+00
   endloop
 endfacet
 facet normal  0.000000e+00  0.000000e+00  1.000000e+00
   outer loop
     vertex  4.500000e+01 -5.520000e+01  8.000000e+00
     vertex  4.050000e+01 -5.520000e+01  8.000000e+00
     vertex  4.500000e+01 -6.000000e+01  8.000000e+00
   endloop
 endfacet
 facet normal  0.000000e+00  1.000000e+00  0.000000e+00
   outer loop
     vertex -4.500000e+01  6.000000e+01  0.000000e+00
     vertex  4.500000e+01  6.000000e+01  7.800000e+01
     vertex  4.500000e+01  6.000000e+01  0.000000e+00
   endloop
 endfacet
 facet normal  0.000000e+00  1.000000e+00  0.000000e+00
   outer loop
     vertex -4.500000e+01  6.000000e+01  0.000000e+00
     vertex -4.500000e+01  6.000000e+01  7.800000e+01
     vertex  4.500000e+01  6.000000e+01  7.800000e+01
   endloop
 endfacet
 facet normal  0.000000e+00  0.000000e+00  1.000000e+00
   outer loop
     vertex  4.500000e+01  6.000000e+01  7.800000e+01
     vertex -4.500000e+01  6.000000e+01  7.800000e+01
     vertex -4.500000e+01  1.209768e+01  7.800000e+01
   endloop
 endfacet
 facet normal  0.000000e+00  0.000000e+00  1.000000e+00
   outer loop
     vertex  4.500000e+01  6.000000e+01  7.800000e+01
     vertex -4.500000e+01  1.209768e+01  7.800000e+01
     vertex  4.500000e+01  1.209768e+01  7.800000e+01
   endloop
 endfacet
 facet normal -3.577613e-17 -9.063078e-01  4.226183e-01
   outer loop
     vertex  4.500000e+01  1.209768e+01  7.800000e+01
     vertex -4.500000e+01  1.209768e+01  7.800000e+01
     vertex -4.500000e+01 -1.800000e+01  1.345531e+01
   endloop
 endfacet
 facet normal  1.365286e-17 -9.063078e-01  4.226183e-01
   outer loop
     vertex  4.500000e+01  1.209768e+01  7.800000e+01
     vertex -4.500000e+01 -1.800000e+01  1.345531e+01
     vertex  4.500000e+01 -1.800000e+01  1.345531e+01
   endloop
 endfacet
 facet normal  0.000000e+00 -1.000000e+00  0.000000e+00
   outer loop
     vertex  4.500000e+01 -1.800000e+01  8.000000e+00
     vertex -4.500000e+01 -1.800000e+01  1.345531e+01
     vertex -4.500000e+01 -1.800000e+01  8.000000e+00
   endloop
 endfacet
 facet normal  0.000000e+00 -1.000000e+00  0.000000e+00
   outer loop
     vertex  4.500000e+01 -1.800000e+01  8.000000e+00
     vertex  4.500000e+01 -1.800000e+01  1.345531e+01
     vertex -4.500000e+01 -1.800000e+01  1.345531e+01
   endloop
 endfacet
 facet normal  0.000000e+00  0.000000e+00  1.000000e+00
   outer loop
     vertex -4.500000e+01 -1.800000e+01  8.000000e+00
     vertex -4.500000e+01 -2.880000e+01  8.000000e+00
     vertex -4.050000e+01 -2.880000e+01  8.000000e+00
   endloop
 endfacet
 facet normal  0.000000e+00  0.000000e+00  1.000000e+00
   outer loop
     vertex  4.500000e+01 -1.800000e+01  8.000000e+00
     vertex -4.050000e+01 -2.880000e+01  8.000000e+00
     vertex  4.050000e+01 -2.880000e+01  8.000000e+00
   endloop
 endfacet
 facet normal  0.000000e+00  0.000000e+00  1.000000e+00
   outer loop
     vertex  4.500000e+01 -1.800000e+01  8.000000e+00
     vertex  4.050000e+01 -2.880000e+01  8.000000e+00
     vertex  4.500000e+01 -2.880000e+01  8.000000e+00
   endloop
 endfacet
 facet normal  0.000000e+00  0.000000e+00  1.000000e+00
   outer loop
     vertex  4.500000e+01 -1.800000e+01  8.000000e+00
     vertex -4.500000e+01 -1.800000e+01  8.000000e+00
     vertex -4.050000e+01 -2.880000e+01  8.000000e+00
   endloop
 endfacet
 facet normal  0.000000e+00  1.000000e+00  0.000000e+00
   outer loop
     vertex  4.050000e+01 -5.520000e+01  0.000000e+00
     vertex -4.050000e+01 -5.520000e+01  0.000000e+00
     vertex -4.050000e+01 -5.520000e+01  8.000000e+00
   endloop
 endfacet
 facet normal  0.000000e+00  1.000000e+00 -0.000000e+00
   outer loop
     vertex  4.050000e+01 -5.520000e+01  0.000000e+00
     vertex -4.050000e+01 -5.520000e+01  8.000000e+00
     vertex  4.050000e+01 -5.520000e+01  8.000000e+00
   endloop
 endfacet
 facet normal -1.000000e+00  0.000000e+00  0.000000e+00
   outer loop
     vertex  4.050000e+01 -2.880000e+01  0.000000e+00
     vertex  4.050000e+01 -5.520000e+01  0.000000e+00
     vertex  4.050000e+01 -5.520000e+01  8.000000e+00
   endloop
 endfacet
 facet normal -1.000000e+00  0.000000e+00  0.000000e+00
   outer loop
     vertex  4.050000e+01 -2.880000e+01  0.000000e+00
     vertex  4.050000e+01 -5.520000e+01  8.000000e+00
     vertex  4.050000e+01 -2.880000e+01  8.000000e+00
   endloop
 endfacet
 facet normal  0.000000e+00 -1.000000e+00  0.000000e+00
   outer loop
     vertex -4.050000e+01 -2.880000e+01  0.000000e+00
     vertex  4.050000e+01 -2.880000e+01  0.000000e+00
     vertex  4.050000e+01 -2.880000e+01  8.000000e+00
   endloop
 endfacet
 facet normal  0.000000e+00 -1.000000e+00  0.000000e+00
   outer loop
     vertex -4.050000e+01 -2.880000e+01  0.000000e+00
     vertex  4.050000e+01 -2.880000e+01  8.000000e+00
     vertex -4.050000e+01 -2.880000e+01  8.000000e+00
   endloop
 endfacet
 facet normal  1.000000e+00 -0.000000e+00  0.000000e+00
   outer loop
     vertex -4.050000e+01 -5.520000e+01  8.000000e+00
     vertex -4.050000e+01 -2.880000e+01  0.000000e+00
     vertex -4.050000e+01 -2.880000e+01  8.000000e+00
   endloop
 endfacet
 facet normal  1.000000e+00  0.000000e+00  0.000000e+00
   outer loop
     vertex -4.050000e+01 -5.520000e+01  0.000000e+00
     vertex -4.050000e+01 -2.880000e+01  0.000000e+00
     vertex -4.050000e+01 -5.520000e+01  8.000000e+00
   endloop
 endfacet
 facet normal  0.000000e+00 -1.000000e+00  0.000000e+00
   outer loop
     vertex -4.050000e+01 -5.520000e+01  8.000000e+00
     vertex -4.500000e+01 -5.520000e+01  1.600000e+01
     vertex -4.500000e+01 -5.520000e+01  8.000000e+00
   endloop
 endfacet
 facet normal  0.000000e+00 -1.000000e+00  0.000000e+00
   outer loop
     vertex  4.050000e+01 -5.520000e+01  8.000000e+00
     vertex  4.500000e+01 -5.520000e+01  1.600000e+01
     vertex -4.500000e+01 -5.520000e+01  1.600000e+01
   endloop
 endfacet
 facet normal  0.000000e+00 -1.000000e+00  0.000000e+00
   outer loop
     vertex  4.050000e+01 -5.520000e+01  8.000000e+00
     vertex -4.500000e+01 -5.520000e+01  1.600000e+01
     vertex -4.050000e+01 -5.520000e+01  8.000000e+00
   endloop
 endfacet
 facet normal  0.000000e+00 -1.000000e+00  0.000000e+00
   outer loop
     vertex  4.500000e+01 -5.520000e+01  8.000000e+00
     vertex  4.500000e+01 -5.520000e+01  1.600000e+01
     vertex  4.050000e+01 -5.520000e+01  8.000000e+00
   endloop
 endfacet
 facet normal  0.000000e+00  1.000000e+00  0.000000e+00
   outer loop
     vertex  4.050000e+01 -2.880000e+01  8.000000e+00
     vertex  4.500000e+01 -2.880000e+01  1.600000e+01
     vertex  4.500000e+01 -2.880000e+01  8.000000e+00
   endloop
 endfacet
 facet normal  0.000000e+00  1.000000e+00 -0.000000e+00
   outer loop
     vertex -4.050000e+01 -2.880000e+01  8.000000e+00
     vertex -4.500000e+01 -2.880000e+01  1.600000e+01
     vertex  4.500000e+01 -2.880000e+01  1.600000e+01
   endloop
 endfacet
 facet normal  0.000000e+00  1.000000e+00  0.000000e+00
   outer loop
     vertex -4.050000e+01 -2.880000e+01  8.000000e+00
     vertex  4.500000e+01 -2.880000e+01  1.600000e+01
     vertex  4.050000e+01 -2.880000e+01  8.000000e+00
   endloop
 endfacet
 facet normal  0.000000e+00  1.000000e+00  0.000000e+00
   outer loop
     vertex -4.500000e+01 -2.880000e+01  8.000000e+00
     vertex -4.500000e+01 -2.880000e+01  1.600000e+01
     vertex -4.050000e+01 -2.880000e+01  8.000000e+00
   endloop
 endfacet
 facet normal  0.000000e+00  0.000000e+00  1.000000e+00
   outer loop
     vertex  4.500000e+01 -2.880000e+01  1.600000e+01
     vertex -4.500000e+01 -5.520000e+01  1.600000e+01
     vertex  4.500000e+01 -5.520000e+01  1.600000e+01
   endloop
 endfacet
 facet normal  0.000000e+00  0.000000e+00  1.000000e+00
   outer loop
     vertex  4.500000e+01 -2.880000e+01  1.600000e+01
     vertex -4.500000e+01 -2.880000e+01  1.600000e+01
     vertex -4.500000e+01 -5.520000e+01  1.600000e+01
   endloop
 endfacet
 facet normal  0.000000e+00  0.000000e+00 -1.000000e+00
   outer loop
     vertex  4.050000e+01 -5.520000e+01  8.000000e+00
     vertex -4.050000e+01 -5.520000e+01  8.000000e+00
     vertex -4.050000e+01 -2.880000e+01  8.000000e+00
   endloop
 endfacet
 facet normal -0.000000e+00 -0.000000e+00 -1.000000e+00
   outer loop
     vertex  4.050000e+01 -2.880000e+01  8.000000e+00
     vertex  4.050000e+01 -5.520000e+01  8.000000e+00
     vertex -4.050000e+01 -2.880000e+01  8.000000e+00
   endloop
 endfacet
endsolid
