solid CadrixAI_mdl_c35246d52f56
  // Generated by CadrixAI
  // Author: Bhavyadeep Rao
  // Year: 2026
 facet normal  0.000000e+00 -1.000000e+00  0.000000e+00
   outer loop
     vertex  7.000000e+01 -9.000000e+01  0.000000e+00
     vertex -7.000000e+01 -9.000000e+01  1.000000e+01
     vertex -7.000000e+01 -9.000000e+01  0.000000e+00
   endloop
 endfacet
 facet normal  0.000000e+00 -1.000000e+00  0.000000e+00
   outer loop
     vertex  7.000000e+01 -9.000000e+01  0.000000e+00
     vertex  7.000000e+01 -9.000000e+01  1.000000e+01
     vertex -7.000000e+01 -9.000000e+01  1.000000e+01
   endloop
 endfacet
 facet normal -1.000000e+00  0.000000e+00  0.000000e+00
   outer loop
     vertex -7.000000e+01  9.000000e+01  0.000000e+00
     vertex -7.000000e+01  1.020365e+01  1.000000e+02
     vertex -7.000000e+01  9.000000e+01  1.000000e+02
   endloop
 endfacet
 facet normal -1.000000e+00  0.000000e+00  0.000000e+00
   outer loop
     vertex -7.000000e+01 -2.615871e+01  1.000000e+01
     vertex -7.000000e+01  1.020365e+01  1.000000e+02
     vertex -7.000000e+01  9.000000e+01  0.000000e+00
   endloop
 endfacet
 facet normal -1.000000e+00  0.000000e+00  0.000000e+00
   outer loop
     vertex -7.000000e+01 -8.280000e+01  1.000000e+01
     vertex -7.000000e+01 -4.320000e+01  2.000000e+01
     vertex -7.000000e+01 -4.320000e+01  1.000000e+01
   endloop
 endfacet
 facet normal -1.000000e+00  0.000000e+00  0.000000e+00
   outer loop
     vertex -7.000000e+01 -8.280000e+01  1.000000e+01
     vertex -7.000000e+01 -8.280000e+01  2.000000e+01
     vertex -7.000000e+01 -4.320000e+01  2.000000e+01
   endloop
 endfacet
 facet normal -1.000000e+00  0.000000e+00  0.000000e+00
   outer loop
     vertex -7.000000e+01 -9.000000e+01  0.000000e+00
     vertex -7.000000e+01 -9.000000e+01  1.000000e+01
     vertex -7.000000e+01 -8.280000e+01  1.000000e+01
   endloop
 endfacet
 facet normal -1.000000e+00  0.000000e+00  0.000000e+00
   outer loop
     vertex -7.000000e+01 -9.000000e+01  0.000000e+00
     vertex -7.000000e+01 -8.280000e+01  1.000000e+01
     vertex -7.000000e+01 -4.320000e+01  1.000000e+01
   endloop
 endfacet
 facet normal -1.000000e+00  0.000000e+00  0.000000e+00
   outer loop
     vertex -7.000000e+01 -9.000000e+01  0.000000e+00
     vertex -7.000000e+01 -2.615871e+01  1.000000e+01
     vertex -7.000000e+01  9.000000e+01  0.000000e+00
   endloop
 endfacet
 facet normal -1.000000e+00  0.000000e+00  0.000000e+00
   outer loop
     vertex -7.000000e+01 -9.000000e+01  0.000000e+00
     vertex -7.000000e+01 -4.320000e+01  1.000000e+01
     vertex -7.000000e+01 -2.615871e+01  1.000000e+01
   endloop
 endfacet
 facet normal  1.000000e+00  0.000000e+00  0.000000e+00
   outer loop
     vertex  7.000000e+01 -9.000000e+01  0.000000e+00
     vertex  7.000000e+01 -8.280000e+01  1.000000e+01
     vertex  7.000000e+01 -9.000000e+01  1.000000e+01
   endloop
 endfacet
 facet normal  1.000000e+00  0.000000e+00  0.000000e+00
   outer loop
     vertex  7.000000e+01 -4.320000e+01  1.000000e+01
     vertex  7.000000e+01 -8.280000e+01  2.000000e+01
     vertex  7.000000e+01 -8.280000e+01  1.000000e+01
   endloop
 endfacet
 facet normal  1.000000e+00  0.000000e+00 -0.000000e+00
   outer loop
     vertex  7.000000e+01 -4.320000e+01  1.000000e+01
     vertex  7.000000e+01 -4.320000e+01  2.000000e+01
     vertex  7.000000e+01 -8.280000e+01  2.000000e+01
   endloop
 endfacet
 facet normal  1.000000e+00  0.000000e+00  0.000000e+00
   outer loop
     vertex  7.000000e+01 -4.320000e+01  1.000000e+01
     vertex  7.000000e+01 -8.280000e+01  1.000000e+01
     vertex  7.000000e+01 -9.000000e+01  0.000000e+00
   endloop
 endfacet
 facet normal  1.000000e+00  0.000000e+00  0.000000e+00
   outer loop
     vertex  7.000000e+01  9.000000e+01  0.000000e+00
     vertex  7.000000e+01  1.020365e+01  1.000000e+02
     vertex  7.000000e+01 -2.615871e+01  1.000000e+01
   endloop
 endfacet
 facet normal  1.000000e+00  0.000000e+00 -0.000000e+00
   outer loop
     vertex  7.000000e+01  9.000000e+01  0.000000e+00
     vertex  7.000000e+01  9.000000e+01  1.000000e+02
     vertex  7.000000e+01  1.020365e+01  1.000000e+02
   endloop
 endfacet
 facet normal  1.000000e+00  0.000000e+00  0.000000e+00
   outer loop
     vertex  7.000000e+01  9.000000e+01  0.000000e+00
     vertex  7.000000e+01 -4.320000e+01  1.000000e+01
     vertex  7.000000e+01 -9.000000e+01  0.000000e+00
   endloop
 endfacet
 facet normal  1.000000e+00  0.000000e+00  0.000000e+00
   outer loop
     vertex  7.000000e+01  9.000000e+01  0.000000e+00
     vertex  7.000000e+01 -2.615871e+01  1.000000e+01
     vertex  7.000000e+01 -4.320000e+01  1.000000e+01
   endloop
 endfacet
 facet normal  0.000000e+00 -0.000000e+00 -1.000000e+00
   outer loop
     vertex -6.300000e+01 -4.320000e+01  0.000000e+00
     vertex -6.300000e+01 -8.280000e+01  0.000000e+00
     vertex -7.000000e+01 -9.000000e+01  0.000000e+00
   endloop
 endfacet
 facet normal  0.000000e+00 -0.000000e+00 -1.000000e+00
   outer loop
     vertex  6.300000e+01 -8.280000e+01  0.000000e+00
     vertex  7.000000e+01 -9.000000e+01  0.000000e+00
     vertex -7.000000e+01 -9.000000e+01  0.000000e+00
   endloop
 endfacet
 facet normal -0.000000e+00  0.000000e+00 -1.000000e+00
   outer loop
     vertex  6.300000e+01 -8.280000e+01  0.000000e+00
     vertex -7.000000e+01 -9.000000e+01  0.000000e+00
     vertex -6.300000e+01 -8.280000e+01  0.000000e+00
   endloop
 endfacet
 facet normal  0.000000e+00  0.000000e+00 -1.000000e+00
   outer loop
     vertex  6.300000e+01 -4.320000e+01  0.000000e+00
     vertex  7.000000e+01 -9.000000e+01  0.000000e+00
     vertex  6.300000e+01 -8.280000e+01  0.000000e+00
   endloop
 endfacet
 facet normal  0.000000e+00  0.000000e+00 -1.000000e+00
   outer loop
     vertex  7.000000e+01  9.000000e+01  0.000000e+00
     vertex  6.300000e+01 -4.320000e+01  0.000000e+00
     vertex -6.300000e+01 -4.320000e+01  0.000000e+00
   endloop
 endfacet
 facet normal -0.000000e+00  0.000000e+00 -1.000000e+00
   outer loop
     vertex  7.000000e+01  9.000000e+01  0.000000e+00
     vertex -6.300000e+01 -4.320000e+01  0.000000e+00
     vertex -7.000000e+01  9.000000e+01  0.000000e+00
   endloop
 endfacet
 facet normal  0.000000e+00  0.000000e+00 -1.000000e+00
   outer loop
     vertex  7.000000e+01 -9.000000e+01  0.000000e+00
     vertex  6.300000e+01 -4.320000e+01  0.000000e+00
     vertex  7.000000e+01  9.000000e+01  0.000000e+00
   endloop
 endfacet
 facet normal  0.000000e+00  0.000000e+00 -1.000000e+00
   outer loop
     vertex -7.000000e+01  9.000000e+01  0.000000e+00
     vertex -6.300000e+01 -4.320000e+01  0.000000e+00
     vertex -7.000000e+01 -9.000000e+01  0.000000e+00
   endloop
 endfacet
 facet normal  0.000000e+00  0.000000e+00  1.000000e+00
   outer loop
     vertex -6.300000e+01 -8.280000e+01  1.000000e+01
     vertex -7.000000e+01 -8.280000e+01  1.000000e+01
     vertex -7.000000e+01 -9.000000e+01  1.000000e+01
   endloop
 endfacet
 facet normal  0.000000e+00  0.000000e+00  1.000000e+00
   outer loop
     vertex  7.000000e+01 -9.000000e+01  1.000000e+01
     vertex -6.300000e+01 -8.280000e+01  1.000000e+01
     vertex -7.000000e+01 -9.000000e+01  1.000000e+01
   endloop
 endfacet
 facet normal  0.000000e+00  0.000000e+00  1.000000e+00
   outer loop
     vertex  6.300000e+01 -8.280000e+01  1.000000e+01
     vertex -6.300000e+01 -8.280000e+01  1.000000e+01
     vertex  7.000000e+01 -9.000000e+01  1.000000e+01
   endloop
 endfacet
 facet normal  0.000000e+00  0.000000e+00  1.000000e+00
   outer loop
     vertex  7.000000e+01 -8.280000e+01  1.000000e+01
     vertex  6.300000e+01 -8.280000e+01  1.000000e+01
     vertex  7.000000e+01 -9.000000e+01  1.000000e+01
   endloop
 endfacet
 facet normal  0.000000e+00  1.000000e+00  0.000000e+00
   outer loop
     vertex -7.000000e+01  9.000000e+01  0.000000e+00
     vertex  7.000000e+01  9.000000e+01  1.000000e+02
     vertex  7.000000e+01  9.000000e+01  0.000000e+00
   endloop
 endfacet
 facet normal  0.000000e+00  1.000000e+00  0.000000e+00
   outer loop
     vertex -7.000000e+01  9.000000e+01  0.000000e+00
     vertex -7.000000e+01  9.000000e+01  1.000000e+02
     vertex  7.000000e+01  9.000000e+01  1.000000e+02
   endloop
 endfacet
 facet normal  0.000000e+00  0.000000e+00  1.000000e+00
   outer loop
     vertex  7.000000e+01  9.000000e+01  1.000000e+02
     vertex -7.000000e+01  9.000000e+01  1.000000e+02
     vertex -7.000000e+01  1.020365e+01  1.000000e+02
   endloop
 endfacet
 facet normal  0.000000e+00  0.000000e+00  1.000000e+00
   outer loop
     vertex  7.000000e+01  9.000000e+01  1.000000e+02
     vertex -7.000000e+01  1.020365e+01  1.000000e+02
     vertex  7.000000e+01  1.020365e+01  1.000000e+02
   endloop
 endfacet
 facet normal  1.673152e-17 -9.271839e-01  3.746066e-01
   outer loop
     vertex  7.000000e+01  1.020365e+01  1.000000e+02
     vertex -7.000000e+01 -2.615871e+01  1.000000e+01
     vertex  7.000000e+01 -2.615871e+01  1.000000e+01
   endloop
 endfacet
 facet normal  2.352871e-17 -9.271839e-01  3.746066e-01
   outer loop
     vertex  7.000000e+01  1.020365e+01  1.000000e+02
     vertex -7.000000e+01  1.020365e+01  1.000000e+02
     vertex -7.000000e+01 -2.615871e+01  1.000000e+01
   endloop
 endfacet
 facet normal  0.000000e+00  0.000000e+00  1.000000e+00
   outer loop
     vertex -7.000000e+01 -2.615871e+01  1.000000e+01
     vertex -7.000000e+01 -4.320000e+01  1.000000e+01
     vertex -6.300000e+01 -4.320000e+01  1.000000e+01
   endloop
 endfacet
 facet normal  0.000000e+00  0.000000e+00  1.000000e+00
   outer loop
     vertex  7.000000e+01 -2.615871e+01  1.000000e+01
     vertex -6.300000e+01 -4.320000e+01  1.000000e+01
     vertex  6.300000e+01 -4.320000e+01  1.000000e+01
   endloop
 endfacet
 facet normal  0.000000e+00  0.000000e+00  1.000000e+00
   outer loop
     vertex  7.000000e+01 -2.615871e+01  1.000000e+01
     vertex  6.300000e+01 -4.320000e+01  1.000000e+01
     vertex  7.000000e+01 -4.320000e+01  1.000000e+01
   endloop
 endfacet
 facet normal  0.000000e+00  0.000000e+00  1.000000e+00
   outer loop
     vertex  7.000000e+01 -2.615871e+01  1.000000e+01
     vertex -7.000000e+01 -2.615871e+01  1.000000e+01
     vertex -6.300000e+01 -4.320000e+01  1.000000e+01
   endloop
 endfacet
 facet normal  0.000000e+00  1.000000e+00  0.000000e+00
   outer loop
     vertex  6.300000e+01 -8.280000e+01  0.000000e+00
     vertex -6.300000e+01 -8.280000e+01  0.000000e+00
     vertex -6.300000e+01 -8.280000e+01  1.000000e+01
   endloop
 endfacet
 facet normal  0.000000e+00  1.000000e+00 -0.000000e+00
   outer loop
     vertex  6.300000e+01 -8.280000e+01  0.000000e+00
     vertex -6.300000e+01 -8.280000e+01  1.000000e+01
     vertex  6.300000e+01 -8.280000e+01  1.000000e+01
   endloop
 endfacet
 facet normal -1.000000e+00 -0.000000e+00  0.000000e+00
   outer loop
     vertex  6.300000e+01 -4.320000e+01  1.000000e+01
     vertex  6.300000e+01 -8.280000e+01  0.000000e+00
     vertex  6.300000e+01 -8.280000e+01  1.000000e+01
   endloop
 endfacet
 facet normal -1.000000e+00  0.000000e+00  0.000000e+00
   outer loop
     vertex  6.300000e+01 -4.320000e+01  0.000000e+00
     vertex  6.300000e+01 -8.280000e+01  0.000000e+00
     vertex  6.300000e+01 -4.320000e+01  1.000000e+01
   endloop
 endfacet
 facet normal  0.000000e+00 -1.000000e+00  0.000000e+00
   outer loop
     vertex -6.300000e+01 -4.320000e+01  0.000000e+00
     vertex  6.300000e+01 -4.320000e+01  0.000000e+00
     vertex  6.300000e+01 -4.320000e+01  1.000000e+01
   endloop
 endfacet
 facet normal  0.000000e+00 -1.000000e+00  0.000000e+00
   outer loop
     vertex -6.300000e+01 -4.320000e+01  0.000000e+00
     vertex  6.300000e+01 -4.320000e+01  1.000000e+01
     vertex -6.300000e+01 -4.320000e+01  1.000000e+01
   endloop
 endfacet
 facet normal  1.000000e+00 -0.000000e+00  0.000000e+00
   outer loop
     vertex -6.300000e+01 -8.280000e+01  1.000000e+01
     vertex -6.300000e+01 -4.320000e+01  0.000000e+00
     vertex -6.300000e+01 -4.320000e+01  1.000000e+01
   endloop
 endfacet
 facet normal  1.000000e+00  0.000000e+00  0.000000e+00
   outer loop
     vertex -6.300000e+01 -8.280000e+01  0.000000e+00
     vertex -6.300000e+01 -4.320000e+01  0.000000e+00
     vertex -6.300000e+01 -8.280000e+01  1.000000e+01
   endloop
 endfacet
 facet normal  0.000000e+00 -1.000000e+00  0.000000e+00
   outer loop
     vertex -6.300000e+01 -8.280000e+01  1.000000e+01
     vertex -7.000000e+01 -8.280000e+01  2.000000e+01
     vertex -7.000000e+01 -8.280000e+01  1.000000e+01
   endloop
 endfacet
 facet normal -0.000000e+00 -1.000000e+00  0.000000e+00
   outer loop
     vertex  7.000000e+01 -8.280000e+01  2.000000e+01
     vertex -7.000000e+01 -8.280000e+01  2.000000e+01
     vertex -6.300000e+01 -8.280000e+01  1.000000e+01
   endloop
 endfacet
 facet normal  0.000000e+00 -1.000000e+00  0.000000e+00
   outer loop
     vertex  6.300000e+01 -8.280000e+01  1.000000e+01
     vertex  7.000000e+01 -8.280000e+01  2.000000e+01
     vertex -6.300000e+01 -8.280000e+01  1.000000e+01
   endloop
 endfacet
 facet normal  0.000000e+00 -1.000000e+00  0.000000e+00
   outer loop
     vertex  7.000000e+01 -8.280000e+01  1.000000e+01
     vertex  7.000000e+01 -8.280000e+01  2.000000e+01
     vertex  6.300000e+01 -8.280000e+01  1.000000e+01
   endloop
 endfacet
 facet normal  0.000000e+00  1.000000e+00  0.000000e+00
   outer loop
     vertex  6.300000e+01 -4.320000e+01  1.000000e+01
     vertex  7.000000e+01 -4.320000e+01  2.000000e+01
     vertex  7.000000e+01 -4.320000e+01  1.000000e+01
   endloop
 endfacet
 facet normal -0.000000e+00  1.000000e+00  0.000000e+00
   outer loop
     vertex -7.000000e+01 -4.320000e+01  2.000000e+01
     vertex  7.000000e+01 -4.320000e+01  2.000000e+01
     vertex  6.300000e+01 -4.320000e+01  1.000000e+01
   endloop
 endfacet
 facet normal  0.000000e+00  1.000000e+00 -0.000000e+00
   outer loop
     vertex -6.300000e+01 -4.320000e+01  1.000000e+01
     vertex -7.000000e+01 -4.320000e+01  2.000000e+01
     vertex  6.300000e+01 -4.320000e+01  1.000000e+01
   endloop
 endfacet
 facet normal  0.000000e+00  1.000000e+00  0.000000e+00
   outer loop
     vertex -7.000000e+01 -4.320000e+01  1.000000e+01
     vertex -7.000000e+01 -4.320000e+01  2.000000e+01
     vertex -6.300000e+01 -4.320000e+01  1.000000e+01
   endloop
 endfacet
 facet normal  0.000000e+00  0.000000e+00  1.000000e+00
   outer loop
     vertex  7.000000e+01 -4.320000e+01  2.000000e+01
     vertex -7.000000e+01 -8.280000e+01  2.000000e+01
     vertex  7.000000e+01 -8.280000e+01  2.000000e+01
   endloop
 endfacet
 facet normal  0.000000e+00  0.000000e+00  1.000000e+00
   outer loop
     vertex  7.000000e+01 -4.320000e+01  2.000000e+01
     vertex -7.000000e+01 -4.320000e+01  2.000000e+01
     vertex -7.000000e+01 -8.280000e+01  2.000000e+01
   endloop
 endfacet
 facet normal -0.000000e+00  0.000000e+00 -1.000000e+00
   outer loop
     vertex  6.300000e+01 -4.320000e+01  1.000000e+01
     vertex -6.300000e+01 -8.280000e+01  1.000000e+01
     vertex -6.300000e+01 -4.320000e+01  1.000000e+01
   endloop
 endfacet
 facet normal  0.000000e+00 -0.000000e+00 -1.000000e+00
   outer loop
     vertex  6.300000e+01 -4.320000e+01  1.000000e+01
     vertex  6.300000e+01 -8.280000e+01  1.000000e+01
     vertex -6.300000e+01 -8.280000e+01  1.000000e+01
   endloop
 endfacet
endsolid
