solid CadrixAI_v2_197dde3b6fea
 facet normal  0.000000e+00  0.000000e+00 -1.000000e+00
   outer loop
     vertex -3.050000e+01 -2.265000e+01  0.000000e+00
     vertex -3.750000e+01 -9.100000e+01  0.000000e+00
     vertex -3.750000e+01 -2.265000e+01  0.000000e+00
   endloop
 endfacet
 facet normal  0.000000e+00 -0.000000e+00 -1.000000e+00
   outer loop
     vertex -3.050000e+01 -2.265000e+01  0.000000e+00
     vertex  3.750000e+01 -9.100000e+01  0.000000e+00
     vertex -3.750000e+01 -9.100000e+01  0.000000e+00
   endloop
 endfacet
 facet normal  0.000000e+00  0.000000e+00 -1.000000e+00
   outer loop
     vertex -3.050000e+01 -4.650000e+00  0.000000e+00
     vertex  3.750000e+01 -9.100000e+01  0.000000e+00
     vertex -3.050000e+01 -2.265000e+01  0.000000e+00
   endloop
 endfacet
 facet normal  0.000000e+00  0.000000e+00 -1.000000e+00
   outer loop
     vertex -3.750000e+01  9.100000e+01  0.000000e+00
     vertex -3.050000e+01 -4.650000e+00  0.000000e+00
     vertex -3.750000e+01 -4.650000e+00  0.000000e+00
   endloop
 endfacet
 facet normal  0.000000e+00 -0.000000e+00 -1.000000e+00
   outer loop
     vertex  3.750000e+01  9.100000e+01  0.000000e+00
     vertex  3.750000e+01 -9.100000e+01  0.000000e+00
     vertex -3.050000e+01 -4.650000e+00  0.000000e+00
   endloop
 endfacet
 facet normal -0.000000e+00  0.000000e+00 -1.000000e+00
   outer loop
     vertex  3.750000e+01  9.100000e+01  0.000000e+00
     vertex -3.050000e+01 -4.650000e+00  0.000000e+00
     vertex -3.750000e+01  9.100000e+01  0.000000e+00
   endloop
 endfacet
 facet normal -1.000000e+00 -0.000000e+00  0.000000e+00
   outer loop
     vertex -3.750000e+01 -2.265000e+01  8.000000e+00
     vertex -3.750000e+01 -9.100000e+01  0.000000e+00
     vertex -3.750000e+01 -9.100000e+01  1.800000e+01
   endloop
 endfacet
 facet normal -1.000000e+00 -0.000000e+00  0.000000e+00
   outer loop
     vertex -3.750000e+01 -9.000000e+00  1.800000e+01
     vertex -3.750000e+01 -2.265000e+01  8.000000e+00
     vertex -3.750000e+01 -9.100000e+01  1.800000e+01
   endloop
 endfacet
 facet normal -1.000000e+00  0.000000e+00  0.000000e+00
   outer loop
     vertex -3.750000e+01 -2.265000e+01  0.000000e+00
     vertex -3.750000e+01 -9.100000e+01  0.000000e+00
     vertex -3.750000e+01 -2.265000e+01  8.000000e+00
   endloop
 endfacet
 facet normal -1.000000e+00  0.000000e+00  0.000000e+00
   outer loop
     vertex -3.750000e+01 -9.000000e+00  8.000000e+00
     vertex -3.750000e+01 -2.265000e+01  8.000000e+00
     vertex -3.750000e+01 -9.000000e+00  1.800000e+01
   endloop
 endfacet
 facet normal -5.075305e-16  1.000000e+00 -4.440892e-16
   outer loop
     vertex -3.750000e+01 -2.265000e+01  8.000000e+00
     vertex -3.050000e+01 -2.265000e+01  0.000000e+00
     vertex -3.750000e+01 -2.265000e+01  0.000000e+00
   endloop
 endfacet
 facet normal  0.000000e+00  1.000000e+00  0.000000e+00
   outer loop
     vertex -3.050000e+01 -2.265000e+01  8.000000e+00
     vertex -3.050000e+01 -2.265000e+01  0.000000e+00
     vertex -3.750000e+01 -2.265000e+01  8.000000e+00
   endloop
 endfacet
 facet normal -1.000000e+00  0.000000e+00  0.000000e+00
   outer loop
     vertex -3.050000e+01 -9.000000e+00  6.000000e+00
     vertex -3.050000e+01 -4.650000e+00  6.000000e+00
     vertex -3.050000e+01 -4.650000e+00  0.000000e+00
   endloop
 endfacet
 facet normal -1.000000e+00  0.000000e+00  0.000000e+00
   outer loop
     vertex -3.050000e+01 -2.265000e+01  0.000000e+00
     vertex -3.050000e+01 -9.000000e+00  6.000000e+00
     vertex -3.050000e+01 -4.650000e+00  0.000000e+00
   endloop
 endfacet
 facet normal -1.000000e+00  0.000000e+00  0.000000e+00
   outer loop
     vertex -3.050000e+01 -2.265000e+01  8.000000e+00
     vertex -3.050000e+01 -9.000000e+00  8.000000e+00
     vertex -3.050000e+01 -9.000000e+00  6.000000e+00
   endloop
 endfacet
 facet normal -1.000000e+00  0.000000e+00  0.000000e+00
   outer loop
     vertex -3.050000e+01 -2.265000e+01  8.000000e+00
     vertex -3.050000e+01 -9.000000e+00  6.000000e+00
     vertex -3.050000e+01 -2.265000e+01  0.000000e+00
   endloop
 endfacet
 facet normal  3.806479e-16 -1.000000e+00  4.440892e-16
   outer loop
     vertex -3.050000e+01 -4.650000e+00  0.000000e+00
     vertex -3.750000e+01 -4.650000e+00  6.000000e+00
     vertex -3.750000e+01 -4.650000e+00  0.000000e+00
   endloop
 endfacet
 facet normal -0.000000e+00 -1.000000e+00 -0.000000e+00
   outer loop
     vertex -3.050000e+01 -4.650000e+00  6.000000e+00
     vertex -3.750000e+01 -4.650000e+00  6.000000e+00
     vertex -3.050000e+01 -4.650000e+00  0.000000e+00
   endloop
 endfacet
 facet normal -1.000000e+00 -0.000000e+00  0.000000e+00
   outer loop
     vertex -3.750000e+01  9.000000e+00  6.000000e+00
     vertex -3.750000e+01 -4.650000e+00  0.000000e+00
     vertex -3.750000e+01 -4.650000e+00  6.000000e+00
   endloop
 endfacet
 facet normal -1.000000e+00 -0.000000e+00  0.000000e+00
   outer loop
     vertex -3.750000e+01  9.100000e+01  1.800000e+01
     vertex -3.750000e+01  9.000000e+00  6.000000e+00
     vertex -3.750000e+01  9.000000e+00  1.800000e+01
   endloop
 endfacet
 facet normal -1.000000e+00  0.000000e+00  0.000000e+00
   outer loop
     vertex -3.750000e+01  9.100000e+01  0.000000e+00
     vertex -3.750000e+01  9.000000e+00  6.000000e+00
     vertex -3.750000e+01  9.100000e+01  1.800000e+01
   endloop
 endfacet
 facet normal -1.000000e+00  0.000000e+00  0.000000e+00
   outer loop
     vertex -3.750000e+01 -4.650000e+00  0.000000e+00
     vertex -3.750000e+01  9.000000e+00  6.000000e+00
     vertex -3.750000e+01  9.100000e+01  0.000000e+00
   endloop
 endfacet
 facet normal  0.000000e+00  1.000000e+00 -0.000000e+00
   outer loop
     vertex -2.150000e+01  9.100000e+01  6.000000e+00
     vertex -3.750000e+01  9.100000e+01  1.800000e+01
     vertex -2.150000e+01  9.100000e+01  1.800000e+01
   endloop
 endfacet
 facet normal  0.000000e+00  1.000000e+00  0.000000e+00
   outer loop
     vertex -2.150000e+01  9.100000e+01  6.000000e+00
     vertex -3.750000e+01  9.100000e+01  0.000000e+00
     vertex -3.750000e+01  9.100000e+01  1.800000e+01
   endloop
 endfacet
 facet normal  0.000000e+00  1.000000e+00  0.000000e+00
   outer loop
     vertex -2.536726e+00  9.100000e+01  6.000000e+00
     vertex -3.750000e+01  9.100000e+01  0.000000e+00
     vertex -2.150000e+01  9.100000e+01  6.000000e+00
   endloop
 endfacet
 facet normal  0.000000e+00  1.000000e+00 -0.000000e+00
   outer loop
     vertex  3.750000e+01  9.100000e+01  0.000000e+00
     vertex  3.450000e+01  9.100000e+01  1.160000e+02
     vertex  3.750000e+01  9.100000e+01  1.160000e+02
   endloop
 endfacet
 facet normal  0.000000e+00  1.000000e+00  0.000000e+00
   outer loop
     vertex  3.750000e+01  9.100000e+01  0.000000e+00
     vertex -2.536726e+00  9.100000e+01  6.000000e+00
     vertex  3.450000e+01  9.100000e+01  1.160000e+02
   endloop
 endfacet
 facet normal  0.000000e+00  1.000000e+00  0.000000e+00
   outer loop
     vertex  3.750000e+01  9.100000e+01  0.000000e+00
     vertex -3.750000e+01  9.100000e+01  0.000000e+00
     vertex -2.536726e+00  9.100000e+01  6.000000e+00
   endloop
 endfacet
 facet normal  1.000000e+00  0.000000e+00  0.000000e+00
   outer loop
     vertex  3.750000e+01  9.100000e+01  1.160000e+02
     vertex  3.750000e+01 -9.100000e+01  1.160000e+02
     vertex  3.750000e+01 -9.100000e+01  0.000000e+00
   endloop
 endfacet
 facet normal  1.000000e+00  0.000000e+00  0.000000e+00
   outer loop
     vertex  3.750000e+01  9.100000e+01  1.160000e+02
     vertex  3.750000e+01 -9.100000e+01  0.000000e+00
     vertex  3.750000e+01  9.100000e+01  0.000000e+00
   endloop
 endfacet
 facet normal  0.000000e+00 -1.000000e+00  0.000000e+00
   outer loop
     vertex -2.150000e+01 -9.100000e+01  6.000000e+00
     vertex -2.150000e+01 -9.100000e+01  1.800000e+01
     vertex -3.750000e+01 -9.100000e+01  1.800000e+01
   endloop
 endfacet
 facet normal -0.000000e+00 -1.000000e+00  0.000000e+00
   outer loop
     vertex -2.150000e+01 -9.100000e+01  6.000000e+00
     vertex -3.750000e+01 -9.100000e+01  1.800000e+01
     vertex -3.750000e+01 -9.100000e+01  0.000000e+00
   endloop
 endfacet
 facet normal -0.000000e+00 -1.000000e+00  0.000000e+00
   outer loop
     vertex -2.536726e+00 -9.100000e+01  6.000000e+00
     vertex -2.150000e+01 -9.100000e+01  6.000000e+00
     vertex -3.750000e+01 -9.100000e+01  0.000000e+00
   endloop
 endfacet
 facet normal  0.000000e+00 -1.000000e+00  0.000000e+00
   outer loop
     vertex  3.750000e+01 -9.100000e+01  0.000000e+00
     vertex  3.750000e+01 -9.100000e+01  1.160000e+02
     vertex  3.450000e+01 -9.100000e+01  1.160000e+02
   endloop
 endfacet
 facet normal  0.000000e+00 -1.000000e+00  0.000000e+00
   outer loop
     vertex  3.750000e+01 -9.100000e+01  0.000000e+00
     vertex  3.450000e+01 -9.100000e+01  1.160000e+02
     vertex -2.536726e+00 -9.100000e+01  6.000000e+00
   endloop
 endfacet
 facet normal  0.000000e+00 -1.000000e+00  0.000000e+00
   outer loop
     vertex  3.750000e+01 -9.100000e+01  0.000000e+00
     vertex -2.536726e+00 -9.100000e+01  6.000000e+00
     vertex -3.750000e+01 -9.100000e+01  0.000000e+00
   endloop
 endfacet
 facet normal -0.000000e+00  0.000000e+00  1.000000e+00
   outer loop
     vertex -3.750000e+01 -9.000000e+00  1.800000e+01
     vertex -2.150000e+01 -9.100000e+01  1.800000e+01
     vertex -2.150000e+01 -9.000000e+00  1.800000e+01
   endloop
 endfacet
 facet normal  0.000000e+00  0.000000e+00  1.000000e+00
   outer loop
     vertex -3.750000e+01 -9.000000e+00  1.800000e+01
     vertex -3.750000e+01 -9.100000e+01  1.800000e+01
     vertex -2.150000e+01 -9.100000e+01  1.800000e+01
   endloop
 endfacet
 facet normal  0.000000e+00  1.000000e+00  0.000000e+00
   outer loop
     vertex -3.750000e+01 -9.000000e+00  1.800000e+01
     vertex -3.050000e+01 -9.000000e+00  8.000000e+00
     vertex -3.750000e+01 -9.000000e+00  8.000000e+00
   endloop
 endfacet
 facet normal  0.000000e+00  1.000000e+00  0.000000e+00
   outer loop
     vertex -2.150000e+01 -9.000000e+00  6.000000e+00
     vertex -3.050000e+01 -9.000000e+00  6.000000e+00
     vertex -3.050000e+01 -9.000000e+00  8.000000e+00
   endloop
 endfacet
 facet normal  0.000000e+00  1.000000e+00  0.000000e+00
   outer loop
     vertex -2.150000e+01 -9.000000e+00  1.800000e+01
     vertex -2.150000e+01 -9.000000e+00  6.000000e+00
     vertex -3.050000e+01 -9.000000e+00  8.000000e+00
   endloop
 endfacet
 facet normal  0.000000e+00  1.000000e+00  0.000000e+00
   outer loop
     vertex -2.150000e+01 -9.000000e+00  1.800000e+01
     vertex -3.050000e+01 -9.000000e+00  8.000000e+00
     vertex -3.750000e+01 -9.000000e+00  1.800000e+01
   endloop
 endfacet
 facet normal -0.000000e+00  0.000000e+00 -1.000000e+00
   outer loop
     vertex -3.050000e+01 -9.000000e+00  8.000000e+00
     vertex -3.750000e+01 -2.265000e+01  8.000000e+00
     vertex -3.750000e+01 -9.000000e+00  8.000000e+00
   endloop
 endfacet
 facet normal  0.000000e+00 -0.000000e+00 -1.000000e+00
   outer loop
     vertex -3.050000e+01 -9.000000e+00  8.000000e+00
     vertex -3.050000e+01 -2.265000e+01  8.000000e+00
     vertex -3.750000e+01 -2.265000e+01  8.000000e+00
   endloop
 endfacet
 facet normal  0.000000e+00  0.000000e+00  1.000000e+00
   outer loop
     vertex -2.150000e+01 -9.000000e+00  6.000000e+00
     vertex -3.050000e+01 -4.650000e+00  6.000000e+00
     vertex -3.050000e+01 -9.000000e+00  6.000000e+00
   endloop
 endfacet
 facet normal  0.000000e+00  0.000000e+00  1.000000e+00
   outer loop
     vertex -2.150000e+01 -9.000000e+00  6.000000e+00
     vertex -2.150000e+01 -9.100000e+01  6.000000e+00
     vertex -2.536726e+00 -9.100000e+01  6.000000e+00
   endloop
 endfacet
 facet normal  0.000000e+00  0.000000e+00  1.000000e+00
   outer loop
     vertex -3.750000e+01  9.000000e+00  6.000000e+00
     vertex -3.750000e+01 -4.650000e+00  6.000000e+00
     vertex -3.050000e+01 -4.650000e+00  6.000000e+00
   endloop
 endfacet
 facet normal  0.000000e+00  0.000000e+00  1.000000e+00
   outer loop
     vertex -2.150000e+01  9.000000e+00  6.000000e+00
     vertex -3.750000e+01  9.000000e+00  6.000000e+00
     vertex -3.050000e+01 -4.650000e+00  6.000000e+00
   endloop
 endfacet
 facet normal  0.000000e+00  0.000000e+00  1.000000e+00
   outer loop
     vertex -2.150000e+01  9.000000e+00  6.000000e+00
     vertex -3.050000e+01 -4.650000e+00  6.000000e+00
     vertex -2.150000e+01 -9.000000e+00  6.000000e+00
   endloop
 endfacet
 facet normal  0.000000e+00  0.000000e+00  1.000000e+00
   outer loop
     vertex -2.536726e+00 -9.000000e+00  6.000000e+00
     vertex -2.150000e+01 -9.000000e+00  6.000000e+00
     vertex -2.536726e+00 -9.100000e+01  6.000000e+00
   endloop
 endfacet
 facet normal  0.000000e+00  0.000000e+00  1.000000e+00
   outer loop
     vertex -2.536726e+00  9.000000e+00  6.000000e+00
     vertex -2.150000e+01  9.000000e+00  6.000000e+00
     vertex -2.150000e+01 -9.000000e+00  6.000000e+00
   endloop
 endfacet
 facet normal  0.000000e+00  0.000000e+00  1.000000e+00
   outer loop
     vertex -2.536726e+00  9.000000e+00  6.000000e+00
     vertex -2.150000e+01 -9.000000e+00  6.000000e+00
     vertex -2.536726e+00 -9.000000e+00  6.000000e+00
   endloop
 endfacet
 facet normal  0.000000e+00  0.000000e+00  1.000000e+00
   outer loop
     vertex  3.450000e+00  9.000000e+00  6.000000e+00
     vertex -2.536726e+00 -9.000000e+00  6.000000e+00
     vertex  3.450000e+00 -9.000000e+00  6.000000e+00
   endloop
 endfacet
 facet normal  0.000000e+00  0.000000e+00  1.000000e+00
   outer loop
     vertex  3.450000e+00  9.000000e+00  6.000000e+00
     vertex -2.536726e+00  9.000000e+00  6.000000e+00
     vertex -2.536726e+00 -9.000000e+00  6.000000e+00
   endloop
 endfacet
 facet normal  0.000000e+00  0.000000e+00  1.000000e+00
   outer loop
     vertex -2.536726e+00  9.100000e+01  6.000000e+00
     vertex -2.150000e+01  9.100000e+01  6.000000e+00
     vertex -2.150000e+01  9.000000e+00  6.000000e+00
   endloop
 endfacet
 facet normal  0.000000e+00  0.000000e+00  1.000000e+00
   outer loop
     vertex -2.536726e+00  9.100000e+01  6.000000e+00
     vertex -2.150000e+01  9.000000e+00  6.000000e+00
     vertex -2.536726e+00  9.000000e+00  6.000000e+00
   endloop
 endfacet
 facet normal  0.000000e+00 -1.000000e+00 -0.000000e+00
   outer loop
     vertex -2.150000e+01  9.000000e+00  1.800000e+01
     vertex -3.750000e+01  9.000000e+00  6.000000e+00
     vertex -2.150000e+01  9.000000e+00  6.000000e+00
   endloop
 endfacet
 facet normal -0.000000e+00 -1.000000e+00  0.000000e+00
   outer loop
     vertex -2.150000e+01  9.000000e+00  1.800000e+01
     vertex -3.750000e+01  9.000000e+00  1.800000e+01
     vertex -3.750000e+01  9.000000e+00  6.000000e+00
   endloop
 endfacet
 facet normal  0.000000e+00  0.000000e+00  1.000000e+00
   outer loop
     vertex -2.150000e+01  9.100000e+01  1.800000e+01
     vertex -3.750000e+01  9.000000e+00  1.800000e+01
     vertex -2.150000e+01  9.000000e+00  1.800000e+01
   endloop
 endfacet
 facet normal -0.000000e+00  0.000000e+00  1.000000e+00
   outer loop
     vertex -3.750000e+01  9.100000e+01  1.800000e+01
     vertex -3.750000e+01  9.000000e+00  1.800000e+01
     vertex -2.150000e+01  9.100000e+01  1.800000e+01
   endloop
 endfacet
 facet normal  0.000000e+00  0.000000e+00  1.000000e+00
   outer loop
     vertex  3.750000e+01  9.100000e+01  1.160000e+02
     vertex  3.450000e+01 -9.100000e+01  1.160000e+02
     vertex  3.750000e+01 -9.100000e+01  1.160000e+02
   endloop
 endfacet
 facet normal -0.000000e+00  0.000000e+00  1.000000e+00
   outer loop
     vertex  3.450000e+01  9.100000e+01  1.160000e+02
     vertex  3.450000e+01 -9.100000e+01  1.160000e+02
     vertex  3.750000e+01  9.100000e+01  1.160000e+02
   endloop
 endfacet
 facet normal -9.477225e-01 -5.320809e-19  3.190958e-01
   outer loop
     vertex  3.450000e+00 -9.000000e+00  2.378072e+01
     vertex -2.536726e+00 -9.100000e+01  6.000000e+00
     vertex  3.450000e+01 -9.100000e+01  1.160000e+02
   endloop
 endfacet
 facet normal -9.477225e-01  0.000000e+00  3.190958e-01
   outer loop
     vertex  3.450000e+01  9.100000e+01  1.160000e+02
     vertex  3.450000e+00 -9.000000e+00  2.378072e+01
     vertex  3.450000e+01 -9.100000e+01  1.160000e+02
   endloop
 endfacet
 facet normal -9.477225e-01  0.000000e+00  3.190958e-01
   outer loop
     vertex  3.450000e+00  9.000000e+00  2.378072e+01
     vertex  3.450000e+00 -9.000000e+00  2.378072e+01
     vertex  3.450000e+01  9.100000e+01  1.160000e+02
   endloop
 endfacet
 facet normal -9.477225e-01 -8.212162e-17  3.190958e-01
   outer loop
     vertex -2.536726e+00 -9.000000e+00  6.000000e+00
     vertex -2.536726e+00 -9.100000e+01  6.000000e+00
     vertex  3.450000e+00 -9.000000e+00  2.378072e+01
   endloop
 endfacet
 facet normal -9.477225e-01  8.212162e-17  3.190958e-01
   outer loop
     vertex -2.536726e+00  9.100000e+01  6.000000e+00
     vertex -2.536726e+00  9.000000e+00  6.000000e+00
     vertex  3.450000e+00  9.000000e+00  2.378072e+01
   endloop
 endfacet
 facet normal -9.477225e-01 -6.913082e-18  3.190958e-01
   outer loop
     vertex -2.536726e+00  9.100000e+01  6.000000e+00
     vertex  3.450000e+00  9.000000e+00  2.378072e+01
     vertex  3.450000e+01  9.100000e+01  1.160000e+02
   endloop
 endfacet
 facet normal  1.000000e+00  0.000000e+00  0.000000e+00
   outer loop
     vertex -2.150000e+01  9.100000e+01  6.000000e+00
     vertex -2.150000e+01  9.000000e+00  1.800000e+01
     vertex -2.150000e+01  9.000000e+00  6.000000e+00
   endloop
 endfacet
 facet normal  1.000000e+00  0.000000e+00  0.000000e+00
   outer loop
     vertex -2.150000e+01  9.100000e+01  1.800000e+01
     vertex -2.150000e+01  9.000000e+00  1.800000e+01
     vertex -2.150000e+01  9.100000e+01  6.000000e+00
   endloop
 endfacet
 facet normal  1.000000e+00  0.000000e+00  0.000000e+00
   outer loop
     vertex -2.150000e+01 -9.000000e+00  1.800000e+01
     vertex -2.150000e+01 -9.100000e+01  6.000000e+00
     vertex -2.150000e+01 -9.000000e+00  6.000000e+00
   endloop
 endfacet
 facet normal  1.000000e+00  0.000000e+00  0.000000e+00
   outer loop
     vertex -2.150000e+01 -9.000000e+00  1.800000e+01
     vertex -2.150000e+01 -9.100000e+01  1.800000e+01
     vertex -2.150000e+01 -9.100000e+01  6.000000e+00
   endloop
 endfacet
 facet normal  0.000000e+00 -1.000000e+00 -0.000000e+00
   outer loop
     vertex  3.450000e+00  9.000000e+00  2.378072e+01
     vertex -2.536726e+00  9.000000e+00  6.000000e+00
     vertex  3.450000e+00  9.000000e+00  6.000000e+00
   endloop
 endfacet
 facet normal -1.000000e+00  0.000000e+00  0.000000e+00
   outer loop
     vertex  3.450000e+00 -9.000000e+00  2.378072e+01
     vertex  3.450000e+00  9.000000e+00  6.000000e+00
     vertex  3.450000e+00 -9.000000e+00  6.000000e+00
   endloop
 endfacet
 facet normal -1.000000e+00  0.000000e+00  0.000000e+00
   outer loop
     vertex  3.450000e+00 -9.000000e+00  2.378072e+01
     vertex  3.450000e+00  9.000000e+00  2.378072e+01
     vertex  3.450000e+00  9.000000e+00  6.000000e+00
   endloop
 endfacet
 facet normal  0.000000e+00  1.000000e+00  0.000000e+00
   outer loop
     vertex  3.450000e+00 -9.000000e+00  2.378072e+01
     vertex  3.450000e+00 -9.000000e+00  6.000000e+00
     vertex -2.536726e+00 -9.000000e+00  6.000000e+00
   endloop
 endfacet
endsolid
