solid CadrixAI_v2_21d040554a9b
 facet normal -0.000000e+00  0.000000e+00 -1.000000e+00
   outer loop
     vertex -3.326170e+01 -2.460000e+01  0.000000e+00
     vertex -4.026170e+01 -1.040000e+02  0.000000e+00
     vertex -4.026170e+01 -2.460000e+01  0.000000e+00
   endloop
 endfacet
 facet normal  0.000000e+00 -0.000000e+00 -1.000000e+00
   outer loop
     vertex -3.326170e+01 -2.460000e+01  0.000000e+00
     vertex  4.026170e+01 -1.040000e+02  0.000000e+00
     vertex -4.026170e+01 -1.040000e+02  0.000000e+00
   endloop
 endfacet
 facet normal  0.000000e+00  0.000000e+00 -1.000000e+00
   outer loop
     vertex -3.326170e+01 -6.600000e+00  0.000000e+00
     vertex  4.026170e+01 -1.040000e+02  0.000000e+00
     vertex -3.326170e+01 -2.460000e+01  0.000000e+00
   endloop
 endfacet
 facet normal  0.000000e+00  0.000000e+00 -1.000000e+00
   outer loop
     vertex -4.026170e+01  1.040000e+02  0.000000e+00
     vertex -3.326170e+01 -6.600000e+00  0.000000e+00
     vertex -4.026170e+01 -6.600000e+00  0.000000e+00
   endloop
 endfacet
 facet normal  0.000000e+00 -0.000000e+00 -1.000000e+00
   outer loop
     vertex  4.026170e+01  1.040000e+02  0.000000e+00
     vertex  4.026170e+01 -1.040000e+02  0.000000e+00
     vertex -3.326170e+01 -6.600000e+00  0.000000e+00
   endloop
 endfacet
 facet normal -0.000000e+00  0.000000e+00 -1.000000e+00
   outer loop
     vertex  4.026170e+01  1.040000e+02  0.000000e+00
     vertex -3.326170e+01 -6.600000e+00  0.000000e+00
     vertex -4.026170e+01  1.040000e+02  0.000000e+00
   endloop
 endfacet
 facet normal -1.000000e+00 -0.000000e+00  0.000000e+00
   outer loop
     vertex -4.026170e+01 -2.460000e+01  8.000000e+00
     vertex -4.026170e+01 -1.040000e+02  0.000000e+00
     vertex -4.026170e+01 -1.040000e+02  1.800000e+01
   endloop
 endfacet
 facet normal -1.000000e+00 -0.000000e+00  0.000000e+00
   outer loop
     vertex -4.026170e+01 -9.000000e+00  1.800000e+01
     vertex -4.026170e+01 -2.460000e+01  8.000000e+00
     vertex -4.026170e+01 -1.040000e+02  1.800000e+01
   endloop
 endfacet
 facet normal -1.000000e+00  0.000000e+00  0.000000e+00
   outer loop
     vertex -4.026170e+01 -2.460000e+01  0.000000e+00
     vertex -4.026170e+01 -1.040000e+02  0.000000e+00
     vertex -4.026170e+01 -2.460000e+01  8.000000e+00
   endloop
 endfacet
 facet normal -1.000000e+00  0.000000e+00  0.000000e+00
   outer loop
     vertex -4.026170e+01 -9.000000e+00  8.000000e+00
     vertex -4.026170e+01 -2.460000e+01  8.000000e+00
     vertex -4.026170e+01 -9.000000e+00  1.800000e+01
   endloop
 endfacet
 facet normal  5.075305e-16  1.000000e+00  4.440892e-16
   outer loop
     vertex -4.026170e+01 -2.460000e+01  8.000000e+00
     vertex -3.326170e+01 -2.460000e+01  0.000000e+00
     vertex -4.026170e+01 -2.460000e+01  0.000000e+00
   endloop
 endfacet
 facet normal  0.000000e+00  1.000000e+00  0.000000e+00
   outer loop
     vertex -3.326170e+01 -2.460000e+01  8.000000e+00
     vertex -3.326170e+01 -2.460000e+01  0.000000e+00
     vertex -4.026170e+01 -2.460000e+01  8.000000e+00
   endloop
 endfacet
 facet normal -1.000000e+00  0.000000e+00  0.000000e+00
   outer loop
     vertex -3.326170e+01 -9.000000e+00  6.000000e+00
     vertex -3.326170e+01 -6.600000e+00  6.000000e+00
     vertex -3.326170e+01 -6.600000e+00  0.000000e+00
   endloop
 endfacet
 facet normal -1.000000e+00  0.000000e+00  0.000000e+00
   outer loop
     vertex -3.326170e+01 -2.460000e+01  0.000000e+00
     vertex -3.326170e+01 -9.000000e+00  6.000000e+00
     vertex -3.326170e+01 -6.600000e+00  0.000000e+00
   endloop
 endfacet
 facet normal -1.000000e+00  0.000000e+00  0.000000e+00
   outer loop
     vertex -3.326170e+01 -2.460000e+01  8.000000e+00
     vertex -3.326170e+01 -9.000000e+00  8.000000e+00
     vertex -3.326170e+01 -9.000000e+00  6.000000e+00
   endloop
 endfacet
 facet normal -1.000000e+00  0.000000e+00  0.000000e+00
   outer loop
     vertex -3.326170e+01 -2.460000e+01  8.000000e+00
     vertex -3.326170e+01 -9.000000e+00  6.000000e+00
     vertex -3.326170e+01 -2.460000e+01  0.000000e+00
   endloop
 endfacet
 facet normal -3.806479e-16 -1.000000e+00 -0.000000e+00
   outer loop
     vertex -3.326170e+01 -6.600000e+00  6.000000e+00
     vertex -4.026170e+01 -6.600000e+00  0.000000e+00
     vertex -3.326170e+01 -6.600000e+00  0.000000e+00
   endloop
 endfacet
 facet normal -0.000000e+00 -1.000000e+00 -4.440892e-16
   outer loop
     vertex -3.326170e+01 -6.600000e+00  6.000000e+00
     vertex -4.026170e+01 -6.600000e+00  6.000000e+00
     vertex -4.026170e+01 -6.600000e+00  0.000000e+00
   endloop
 endfacet
 facet normal -1.000000e+00 -0.000000e+00  0.000000e+00
   outer loop
     vertex -4.026170e+01  9.000000e+00  6.000000e+00
     vertex -4.026170e+01 -6.600000e+00  0.000000e+00
     vertex -4.026170e+01 -6.600000e+00  6.000000e+00
   endloop
 endfacet
 facet normal -1.000000e+00 -0.000000e+00  0.000000e+00
   outer loop
     vertex -4.026170e+01  1.040000e+02  1.800000e+01
     vertex -4.026170e+01  9.000000e+00  6.000000e+00
     vertex -4.026170e+01  9.000000e+00  1.800000e+01
   endloop
 endfacet
 facet normal -1.000000e+00  0.000000e+00  0.000000e+00
   outer loop
     vertex -4.026170e+01  1.040000e+02  0.000000e+00
     vertex -4.026170e+01  9.000000e+00  6.000000e+00
     vertex -4.026170e+01  1.040000e+02  1.800000e+01
   endloop
 endfacet
 facet normal -1.000000e+00  0.000000e+00  0.000000e+00
   outer loop
     vertex -4.026170e+01 -6.600000e+00  0.000000e+00
     vertex -4.026170e+01  9.000000e+00  6.000000e+00
     vertex -4.026170e+01  1.040000e+02  0.000000e+00
   endloop
 endfacet
 facet normal  0.000000e+00  1.000000e+00 -0.000000e+00
   outer loop
     vertex -2.426170e+01  1.040000e+02  6.000000e+00
     vertex -4.026170e+01  1.040000e+02  1.800000e+01
     vertex -2.426170e+01  1.040000e+02  1.800000e+01
   endloop
 endfacet
 facet normal  0.000000e+00  1.000000e+00  0.000000e+00
   outer loop
     vertex -2.426170e+01  1.040000e+02  6.000000e+00
     vertex -4.026170e+01  1.040000e+02  0.000000e+00
     vertex -4.026170e+01  1.040000e+02  1.800000e+01
   endloop
 endfacet
 facet normal  0.000000e+00  1.000000e+00  0.000000e+00
   outer loop
     vertex -1.226170e+01  1.040000e+02  6.000000e+00
     vertex -4.026170e+01  1.040000e+02  0.000000e+00
     vertex -2.426170e+01  1.040000e+02  6.000000e+00
   endloop
 endfacet
 facet normal  0.000000e+00  1.000000e+00 -0.000000e+00
   outer loop
     vertex  4.026170e+01  1.040000e+02  0.000000e+00
     vertex  3.726170e+01  1.040000e+02  1.360000e+02
     vertex  4.026170e+01  1.040000e+02  1.360000e+02
   endloop
 endfacet
 facet normal  0.000000e+00  1.000000e+00  0.000000e+00
   outer loop
     vertex  4.026170e+01  1.040000e+02  0.000000e+00
     vertex -4.026170e+01  1.040000e+02  0.000000e+00
     vertex -1.226170e+01  1.040000e+02  6.000000e+00
   endloop
 endfacet
 facet normal  0.000000e+00  1.000000e+00  0.000000e+00
   outer loop
     vertex  3.726170e+01  1.040000e+02  1.360000e+02
     vertex  4.026170e+01  1.040000e+02  0.000000e+00
     vertex -1.226170e+01  1.040000e+02  6.000000e+00
   endloop
 endfacet
 facet normal  1.000000e+00  0.000000e+00  0.000000e+00
   outer loop
     vertex  4.026170e+01  1.040000e+02  1.360000e+02
     vertex  4.026170e+01 -1.040000e+02  1.360000e+02
     vertex  4.026170e+01 -1.040000e+02  0.000000e+00
   endloop
 endfacet
 facet normal  1.000000e+00  0.000000e+00  0.000000e+00
   outer loop
     vertex  4.026170e+01  1.040000e+02  1.360000e+02
     vertex  4.026170e+01 -1.040000e+02  0.000000e+00
     vertex  4.026170e+01  1.040000e+02  0.000000e+00
   endloop
 endfacet
 facet normal  0.000000e+00 -1.000000e+00  0.000000e+00
   outer loop
     vertex -2.426170e+01 -1.040000e+02  6.000000e+00
     vertex -2.426170e+01 -1.040000e+02  1.800000e+01
     vertex -4.026170e+01 -1.040000e+02  1.800000e+01
   endloop
 endfacet
 facet normal -0.000000e+00 -1.000000e+00  0.000000e+00
   outer loop
     vertex -2.426170e+01 -1.040000e+02  6.000000e+00
     vertex -4.026170e+01 -1.040000e+02  1.800000e+01
     vertex -4.026170e+01 -1.040000e+02  0.000000e+00
   endloop
 endfacet
 facet normal -0.000000e+00 -1.000000e+00  0.000000e+00
   outer loop
     vertex -1.226170e+01 -1.040000e+02  6.000000e+00
     vertex -2.426170e+01 -1.040000e+02  6.000000e+00
     vertex -4.026170e+01 -1.040000e+02  0.000000e+00
   endloop
 endfacet
 facet normal  0.000000e+00 -1.000000e+00  0.000000e+00
   outer loop
     vertex  4.026170e+01 -1.040000e+02  0.000000e+00
     vertex  4.026170e+01 -1.040000e+02  1.360000e+02
     vertex  3.726170e+01 -1.040000e+02  1.360000e+02
   endloop
 endfacet
 facet normal  0.000000e+00 -1.000000e+00  0.000000e+00
   outer loop
     vertex  4.026170e+01 -1.040000e+02  0.000000e+00
     vertex -1.226170e+01 -1.040000e+02  6.000000e+00
     vertex -4.026170e+01 -1.040000e+02  0.000000e+00
   endloop
 endfacet
 facet normal  0.000000e+00 -1.000000e+00 -0.000000e+00
   outer loop
     vertex  3.726170e+01 -1.040000e+02  1.360000e+02
     vertex -1.226170e+01 -1.040000e+02  6.000000e+00
     vertex  4.026170e+01 -1.040000e+02  0.000000e+00
   endloop
 endfacet
 facet normal -0.000000e+00  0.000000e+00  1.000000e+00
   outer loop
     vertex -4.026170e+01 -9.000000e+00  1.800000e+01
     vertex -2.426170e+01 -1.040000e+02  1.800000e+01
     vertex -2.426170e+01 -9.000000e+00  1.800000e+01
   endloop
 endfacet
 facet normal  0.000000e+00  0.000000e+00  1.000000e+00
   outer loop
     vertex -4.026170e+01 -9.000000e+00  1.800000e+01
     vertex -4.026170e+01 -1.040000e+02  1.800000e+01
     vertex -2.426170e+01 -1.040000e+02  1.800000e+01
   endloop
 endfacet
 facet normal  0.000000e+00  1.000000e+00  0.000000e+00
   outer loop
     vertex -4.026170e+01 -9.000000e+00  1.800000e+01
     vertex -3.326170e+01 -9.000000e+00  8.000000e+00
     vertex -4.026170e+01 -9.000000e+00  8.000000e+00
   endloop
 endfacet
 facet normal  0.000000e+00  1.000000e+00  0.000000e+00
   outer loop
     vertex -2.426170e+01 -9.000000e+00  6.000000e+00
     vertex -3.326170e+01 -9.000000e+00  6.000000e+00
     vertex -3.326170e+01 -9.000000e+00  8.000000e+00
   endloop
 endfacet
 facet normal  0.000000e+00  1.000000e+00  0.000000e+00
   outer loop
     vertex -2.426170e+01 -9.000000e+00  1.800000e+01
     vertex -2.426170e+01 -9.000000e+00  6.000000e+00
     vertex -3.326170e+01 -9.000000e+00  8.000000e+00
   endloop
 endfacet
 facet normal  0.000000e+00  1.000000e+00  0.000000e+00
   outer loop
     vertex -2.426170e+01 -9.000000e+00  1.800000e+01
     vertex -3.326170e+01 -9.000000e+00  8.000000e+00
     vertex -4.026170e+01 -9.000000e+00  1.800000e+01
   endloop
 endfacet
 facet normal -0.000000e+00  0.000000e+00 -1.000000e+00
   outer loop
     vertex -3.326170e+01 -9.000000e+00  8.000000e+00
     vertex -4.026170e+01 -2.460000e+01  8.000000e+00
     vertex -4.026170e+01 -9.000000e+00  8.000000e+00
   endloop
 endfacet
 facet normal  0.000000e+00 -0.000000e+00 -1.000000e+00
   outer loop
     vertex -3.326170e+01 -9.000000e+00  8.000000e+00
     vertex -3.326170e+01 -2.460000e+01  8.000000e+00
     vertex -4.026170e+01 -2.460000e+01  8.000000e+00
   endloop
 endfacet
 facet normal  0.000000e+00  0.000000e+00  1.000000e+00
   outer loop
     vertex -2.426170e+01 -9.000000e+00  6.000000e+00
     vertex -3.326170e+01 -6.600000e+00  6.000000e+00
     vertex -3.326170e+01 -9.000000e+00  6.000000e+00
   endloop
 endfacet
 facet normal  0.000000e+00  0.000000e+00  1.000000e+00
   outer loop
     vertex -2.426170e+01 -9.000000e+00  6.000000e+00
     vertex -2.426170e+01 -1.040000e+02  6.000000e+00
     vertex -1.226170e+01 -1.040000e+02  6.000000e+00
   endloop
 endfacet
 facet normal  0.000000e+00  0.000000e+00  1.000000e+00
   outer loop
     vertex -4.026170e+01  9.000000e+00  6.000000e+00
     vertex -4.026170e+01 -6.600000e+00  6.000000e+00
     vertex -3.326170e+01 -6.600000e+00  6.000000e+00
   endloop
 endfacet
 facet normal  0.000000e+00  0.000000e+00  1.000000e+00
   outer loop
     vertex -1.226170e+01 -9.000000e+00  6.000000e+00
     vertex -2.426170e+01 -9.000000e+00  6.000000e+00
     vertex -1.226170e+01 -1.040000e+02  6.000000e+00
   endloop
 endfacet
 facet normal  0.000000e+00  0.000000e+00  1.000000e+00
   outer loop
     vertex -2.426170e+01  9.000000e+00  6.000000e+00
     vertex -4.026170e+01  9.000000e+00  6.000000e+00
     vertex -3.326170e+01 -6.600000e+00  6.000000e+00
   endloop
 endfacet
 facet normal  0.000000e+00  0.000000e+00  1.000000e+00
   outer loop
     vertex -2.426170e+01  9.000000e+00  6.000000e+00
     vertex -3.326170e+01 -6.600000e+00  6.000000e+00
     vertex -2.426170e+01 -9.000000e+00  6.000000e+00
   endloop
 endfacet
 facet normal  0.000000e+00  0.000000e+00  1.000000e+00
   outer loop
     vertex -1.226170e+01  9.000000e+00  6.000000e+00
     vertex -2.426170e+01 -9.000000e+00  6.000000e+00
     vertex -1.226170e+01 -9.000000e+00  6.000000e+00
   endloop
 endfacet
 facet normal  0.000000e+00  0.000000e+00  1.000000e+00
   outer loop
     vertex -1.226170e+01  9.000000e+00  6.000000e+00
     vertex -2.426170e+01  9.000000e+00  6.000000e+00
     vertex -2.426170e+01 -9.000000e+00  6.000000e+00
   endloop
 endfacet
 facet normal  0.000000e+00  0.000000e+00  1.000000e+00
   outer loop
     vertex  6.538295e+00 -9.000000e+00  6.000000e+00
     vertex -1.226170e+01  9.000000e+00  6.000000e+00
     vertex -1.226170e+01 -9.000000e+00  6.000000e+00
   endloop
 endfacet
 facet normal  0.000000e+00  0.000000e+00  1.000000e+00
   outer loop
     vertex  6.538295e+00  9.000000e+00  6.000000e+00
     vertex -1.226170e+01  9.000000e+00  6.000000e+00
     vertex  6.538295e+00 -9.000000e+00  6.000000e+00
   endloop
 endfacet
 facet normal  0.000000e+00  0.000000e+00  1.000000e+00
   outer loop
     vertex -1.226170e+01  1.040000e+02  6.000000e+00
     vertex -2.426170e+01  1.040000e+02  6.000000e+00
     vertex -2.426170e+01  9.000000e+00  6.000000e+00
   endloop
 endfacet
 facet normal  0.000000e+00  0.000000e+00  1.000000e+00
   outer loop
     vertex -1.226170e+01  1.040000e+02  6.000000e+00
     vertex -2.426170e+01  9.000000e+00  6.000000e+00
     vertex -1.226170e+01  9.000000e+00  6.000000e+00
   endloop
 endfacet
 facet normal  0.000000e+00 -1.000000e+00 -0.000000e+00
   outer loop
     vertex -2.426170e+01  9.000000e+00  1.800000e+01
     vertex -4.026170e+01  9.000000e+00  6.000000e+00
     vertex -2.426170e+01  9.000000e+00  6.000000e+00
   endloop
 endfacet
 facet normal -0.000000e+00 -1.000000e+00  0.000000e+00
   outer loop
     vertex -2.426170e+01  9.000000e+00  1.800000e+01
     vertex -4.026170e+01  9.000000e+00  1.800000e+01
     vertex -4.026170e+01  9.000000e+00  6.000000e+00
   endloop
 endfacet
 facet normal  0.000000e+00  0.000000e+00  1.000000e+00
   outer loop
     vertex -2.426170e+01  1.040000e+02  1.800000e+01
     vertex -4.026170e+01  9.000000e+00  1.800000e+01
     vertex -2.426170e+01  9.000000e+00  1.800000e+01
   endloop
 endfacet
 facet normal -0.000000e+00  0.000000e+00  1.000000e+00
   outer loop
     vertex -4.026170e+01  1.040000e+02  1.800000e+01
     vertex -4.026170e+01  9.000000e+00  1.800000e+01
     vertex -2.426170e+01  1.040000e+02  1.800000e+01
   endloop
 endfacet
 facet normal  0.000000e+00  0.000000e+00  1.000000e+00
   outer loop
     vertex  4.026170e+01  1.040000e+02  1.360000e+02
     vertex  3.726170e+01 -1.040000e+02  1.360000e+02
     vertex  4.026170e+01 -1.040000e+02  1.360000e+02
   endloop
 endfacet
 facet normal -0.000000e+00  0.000000e+00  1.000000e+00
   outer loop
     vertex  3.726170e+01  1.040000e+02  1.360000e+02
     vertex  3.726170e+01 -1.040000e+02  1.360000e+02
     vertex  4.026170e+01  1.040000e+02  1.360000e+02
   endloop
 endfacet
 facet normal -9.344887e-01 -6.559294e-17  3.559928e-01
   outer loop
     vertex -2.357023e+00 -9.000000e+00  3.200000e+01
     vertex -1.226170e+01 -1.040000e+02  6.000000e+00
     vertex  3.726170e+01 -1.040000e+02  1.360000e+02
   endloop
 endfacet
 facet normal -9.344887e-01  0.000000e+00  3.559928e-01
   outer loop
     vertex  3.726170e+01  1.040000e+02  1.360000e+02
     vertex -2.357023e+00 -9.000000e+00  3.200000e+01
     vertex  3.726170e+01 -1.040000e+02  1.360000e+02
   endloop
 endfacet
 facet normal -9.344887e-01  0.000000e+00  3.559928e-01
   outer loop
     vertex -2.357023e+00  9.000000e+00  3.200000e+01
     vertex -2.357023e+00 -9.000000e+00  3.200000e+01
     vertex  3.726170e+01  1.040000e+02  1.360000e+02
   endloop
 endfacet
 facet normal -9.344887e-01  3.494706e-17  3.559928e-01
   outer loop
     vertex -1.226170e+01 -9.000000e+00  6.000000e+00
     vertex -1.226170e+01 -1.040000e+02  6.000000e+00
     vertex -2.357023e+00 -9.000000e+00  3.200000e+01
   endloop
 endfacet
 facet normal -9.344887e-01 -3.494706e-17  3.559928e-01
   outer loop
     vertex -1.226170e+01  1.040000e+02  6.000000e+00
     vertex -1.226170e+01  9.000000e+00  6.000000e+00
     vertex -2.357023e+00  9.000000e+00  3.200000e+01
   endloop
 endfacet
 facet normal -9.344887e-01  7.312000e-17  3.559928e-01
   outer loop
     vertex -1.226170e+01  1.040000e+02  6.000000e+00
     vertex -2.357023e+00  9.000000e+00  3.200000e+01
     vertex  3.726170e+01  1.040000e+02  1.360000e+02
   endloop
 endfacet
 facet normal  1.000000e+00  0.000000e+00  0.000000e+00
   outer loop
     vertex -2.426170e+01  1.040000e+02  1.800000e+01
     vertex -2.426170e+01  9.000000e+00  6.000000e+00
     vertex -2.426170e+01  1.040000e+02  6.000000e+00
   endloop
 endfacet
 facet normal  1.000000e+00  0.000000e+00  0.000000e+00
   outer loop
     vertex -2.426170e+01  1.040000e+02  1.800000e+01
     vertex -2.426170e+01  9.000000e+00  1.800000e+01
     vertex -2.426170e+01  9.000000e+00  6.000000e+00
   endloop
 endfacet
 facet normal  1.000000e+00  0.000000e+00  0.000000e+00
   outer loop
     vertex -2.426170e+01 -9.000000e+00  1.800000e+01
     vertex -2.426170e+01 -1.040000e+02  6.000000e+00
     vertex -2.426170e+01 -9.000000e+00  6.000000e+00
   endloop
 endfacet
 facet normal  1.000000e+00  0.000000e+00  0.000000e+00
   outer loop
     vertex -2.426170e+01 -9.000000e+00  1.800000e+01
     vertex -2.426170e+01 -1.040000e+02  1.800000e+01
     vertex -2.426170e+01 -1.040000e+02  6.000000e+00
   endloop
 endfacet
 facet normal  0.000000e+00 -1.000000e+00 -0.000000e+00
   outer loop
     vertex -2.357023e+00  9.000000e+00  3.200000e+01
     vertex -1.226170e+01  9.000000e+00  6.000000e+00
     vertex  6.538295e+00  9.000000e+00  6.000000e+00
   endloop
 endfacet
 facet normal -0.000000e+00 -1.000000e+00 -0.000000e+00
   outer loop
     vertex  6.538295e+00  9.000000e+00  3.200000e+01
     vertex -2.357023e+00  9.000000e+00  3.200000e+01
     vertex  6.538295e+00  9.000000e+00  6.000000e+00
   endloop
 endfacet
 facet normal -1.000000e+00  0.000000e+00  0.000000e+00
   outer loop
     vertex  6.538295e+00 -9.000000e+00  3.200000e+01
     vertex  6.538295e+00  9.000000e+00  6.000000e+00
     vertex  6.538295e+00 -9.000000e+00  6.000000e+00
   endloop
 endfacet
 facet normal -1.000000e+00  0.000000e+00  0.000000e+00
   outer loop
     vertex  6.538295e+00 -9.000000e+00  3.200000e+01
     vertex  6.538295e+00  9.000000e+00  3.200000e+01
     vertex  6.538295e+00  9.000000e+00  6.000000e+00
   endloop
 endfacet
 facet normal  0.000000e+00  1.000000e+00  0.000000e+00
   outer loop
     vertex -2.357023e+00 -9.000000e+00  3.200000e+01
     vertex  6.538295e+00 -9.000000e+00  6.000000e+00
     vertex -1.226170e+01 -9.000000e+00  6.000000e+00
   endloop
 endfacet
 facet normal  0.000000e+00  1.000000e+00  0.000000e+00
   outer loop
     vertex  6.538295e+00 -9.000000e+00  3.200000e+01
     vertex  6.538295e+00 -9.000000e+00  6.000000e+00
     vertex -2.357023e+00 -9.000000e+00  3.200000e+01
   endloop
 endfacet
 facet normal -0.000000e+00  0.000000e+00 -1.000000e+00
   outer loop
     vertex  6.538295e+00  9.000000e+00  3.200000e+01
     vertex -2.357023e+00 -9.000000e+00  3.200000e+01
     vertex -2.357023e+00  9.000000e+00  3.200000e+01
   endloop
 endfacet
 facet normal  0.000000e+00 -0.000000e+00 -1.000000e+00
   outer loop
     vertex  6.538295e+00  9.000000e+00  3.200000e+01
     vertex  6.538295e+00 -9.000000e+00  3.200000e+01
     vertex -2.357023e+00 -9.000000e+00  3.200000e+01
   endloop
 endfacet
endsolid
