solid CadrixAI_v2_66f6ab62a881
 facet normal -1.000000e+00  0.000000e+00  0.000000e+00
   outer loop
     vertex -5.200000e+01 -4.000000e+01  4.000000e+00
     vertex -5.200000e+01 -3.400000e+01  0.000000e+00
     vertex -5.200000e+01 -4.000000e+01  0.000000e+00
   endloop
 endfacet
 facet normal -1.000000e+00  0.000000e+00  0.000000e+00
   outer loop
     vertex -5.200000e+01 -4.000000e+01  4.000000e+00
     vertex -5.200000e+01 -3.400000e+01  4.000000e+00
     vertex -5.200000e+01 -3.400000e+01  0.000000e+00
   endloop
 endfacet
 facet normal  0.000000e+00  0.000000e+00  1.000000e+00
   outer loop
     vertex -5.200000e+01 -3.400000e+01  4.000000e+00
     vertex -5.200000e+01 -4.000000e+01  4.000000e+00
     vertex -4.635000e+01 -4.000000e+01  4.000000e+00
   endloop
 endfacet
 facet normal  0.000000e+00  0.000000e+00  1.000000e+00
   outer loop
     vertex -4.635000e+01 -3.100000e+01  4.000000e+00
     vertex -5.200000e+01 -3.400000e+01  4.000000e+00
     vertex -4.635000e+01 -4.000000e+01  4.000000e+00
   endloop
 endfacet
 facet normal  0.000000e+00  0.000000e+00  1.000000e+00
   outer loop
     vertex -5.200000e+01 -1.800000e+01  4.000000e+00
     vertex -6.000000e+01 -1.800000e+01  4.000000e+00
     vertex -6.000000e+01 -3.400000e+01  4.000000e+00
   endloop
 endfacet
 facet normal  0.000000e+00  0.000000e+00  1.000000e+00
   outer loop
     vertex -5.200000e+01 -1.800000e+01  4.000000e+00
     vertex -6.000000e+01 -3.400000e+01  4.000000e+00
     vertex -5.200000e+01 -3.400000e+01  4.000000e+00
   endloop
 endfacet
 facet normal  0.000000e+00  0.000000e+00  1.000000e+00
   outer loop
     vertex -5.200000e+01 -1.800000e+01  4.000000e+00
     vertex -5.200000e+01 -3.400000e+01  4.000000e+00
     vertex -4.635000e+01 -3.100000e+01  4.000000e+00
   endloop
 endfacet
 facet normal  0.000000e+00  0.000000e+00  1.000000e+00
   outer loop
     vertex -2.965000e+01 -3.100000e+01  4.000000e+00
     vertex -5.200000e+01 -1.800000e+01  4.000000e+00
     vertex -4.635000e+01 -3.100000e+01  4.000000e+00
   endloop
 endfacet
 facet normal  0.000000e+00  0.000000e+00  1.000000e+00
   outer loop
     vertex -5.200000e+01  3.400000e+01  4.000000e+00
     vertex -6.000000e+01  3.400000e+01  4.000000e+00
     vertex -6.000000e+01  1.800000e+01  4.000000e+00
   endloop
 endfacet
 facet normal  0.000000e+00  0.000000e+00  1.000000e+00
   outer loop
     vertex -5.200000e+01  3.400000e+01  4.000000e+00
     vertex -6.000000e+01  1.800000e+01  4.000000e+00
     vertex -5.200000e+01  1.800000e+01  4.000000e+00
   endloop
 endfacet
 facet normal  0.000000e+00  0.000000e+00  1.000000e+00
   outer loop
     vertex -4.635000e+01  3.100000e+01  4.000000e+00
     vertex -5.200000e+01  3.400000e+01  4.000000e+00
     vertex -5.200000e+01  1.800000e+01  4.000000e+00
   endloop
 endfacet
 facet normal  0.000000e+00  0.000000e+00  1.000000e+00
   outer loop
     vertex  2.965000e+01 -4.000000e+01  4.000000e+00
     vertex -2.965000e+01 -3.100000e+01  4.000000e+00
     vertex -2.965000e+01 -4.000000e+01  4.000000e+00
   endloop
 endfacet
 facet normal  0.000000e+00  0.000000e+00  1.000000e+00
   outer loop
     vertex -4.635000e+01  4.000000e+01  4.000000e+00
     vertex -5.200000e+01  4.000000e+01  4.000000e+00
     vertex -5.200000e+01  3.400000e+01  4.000000e+00
   endloop
 endfacet
 facet normal  0.000000e+00  0.000000e+00  1.000000e+00
   outer loop
     vertex -4.635000e+01  4.000000e+01  4.000000e+00
     vertex -5.200000e+01  3.400000e+01  4.000000e+00
     vertex -4.635000e+01  3.100000e+01  4.000000e+00
   endloop
 endfacet
 facet normal  0.000000e+00  0.000000e+00  1.000000e+00
   outer loop
     vertex  2.965000e+01 -3.100000e+01  4.000000e+00
     vertex -2.965000e+01 -3.100000e+01  4.000000e+00
     vertex  2.965000e+01 -4.000000e+01  4.000000e+00
   endloop
 endfacet
 facet normal  0.000000e+00  0.000000e+00  1.000000e+00
   outer loop
     vertex -2.965000e+01  3.100000e+01  4.000000e+00
     vertex -5.200000e+01  1.800000e+01  4.000000e+00
     vertex -5.200000e+01 -1.800000e+01  4.000000e+00
   endloop
 endfacet
 facet normal  0.000000e+00  0.000000e+00  1.000000e+00
   outer loop
     vertex -2.965000e+01  3.100000e+01  4.000000e+00
     vertex -5.200000e+01 -1.800000e+01  4.000000e+00
     vertex -2.965000e+01 -3.100000e+01  4.000000e+00
   endloop
 endfacet
 facet normal  0.000000e+00  0.000000e+00  1.000000e+00
   outer loop
     vertex -2.965000e+01  3.100000e+01  4.000000e+00
     vertex -4.635000e+01  3.100000e+01  4.000000e+00
     vertex -5.200000e+01  1.800000e+01  4.000000e+00
   endloop
 endfacet
 facet normal  0.000000e+00  0.000000e+00  1.000000e+00
   outer loop
     vertex -2.965000e+01  3.100000e+01  4.000000e+00
     vertex -2.965000e+01 -3.100000e+01  4.000000e+00
     vertex  2.965000e+01 -3.100000e+01  4.000000e+00
   endloop
 endfacet
 facet normal  0.000000e+00  0.000000e+00  1.000000e+00
   outer loop
     vertex  5.200000e+01 -3.400000e+01  4.000000e+00
     vertex  4.635000e+01 -3.100000e+01  4.000000e+00
     vertex  4.635000e+01 -4.000000e+01  4.000000e+00
   endloop
 endfacet
 facet normal  0.000000e+00  0.000000e+00  1.000000e+00
   outer loop
     vertex  5.200000e+01 -3.400000e+01  4.000000e+00
     vertex  4.635000e+01 -4.000000e+01  4.000000e+00
     vertex  5.200000e+01 -4.000000e+01  4.000000e+00
   endloop
 endfacet
 facet normal  0.000000e+00  0.000000e+00  1.000000e+00
   outer loop
     vertex  5.200000e+01 -1.800000e+01  4.000000e+00
     vertex  2.965000e+01 -3.100000e+01  4.000000e+00
     vertex  4.635000e+01 -3.100000e+01  4.000000e+00
   endloop
 endfacet
 facet normal  0.000000e+00  0.000000e+00  1.000000e+00
   outer loop
     vertex  5.200000e+01 -1.800000e+01  4.000000e+00
     vertex  4.635000e+01 -3.100000e+01  4.000000e+00
     vertex  5.200000e+01 -3.400000e+01  4.000000e+00
   endloop
 endfacet
 facet normal  0.000000e+00  0.000000e+00  1.000000e+00
   outer loop
     vertex  6.000000e+01 -1.800000e+01  4.000000e+00
     vertex  5.200000e+01 -3.400000e+01  4.000000e+00
     vertex  6.000000e+01 -3.400000e+01  4.000000e+00
   endloop
 endfacet
 facet normal  0.000000e+00  0.000000e+00  1.000000e+00
   outer loop
     vertex  6.000000e+01 -1.800000e+01  4.000000e+00
     vertex  5.200000e+01 -1.800000e+01  4.000000e+00
     vertex  5.200000e+01 -3.400000e+01  4.000000e+00
   endloop
 endfacet
 facet normal  0.000000e+00  0.000000e+00  1.000000e+00
   outer loop
     vertex  2.965000e+01  3.100000e+01  4.000000e+00
     vertex -2.965000e+01  4.000000e+01  4.000000e+00
     vertex -2.965000e+01  3.100000e+01  4.000000e+00
   endloop
 endfacet
 facet normal  0.000000e+00  0.000000e+00  1.000000e+00
   outer loop
     vertex  2.965000e+01  3.100000e+01  4.000000e+00
     vertex -2.965000e+01  3.100000e+01  4.000000e+00
     vertex  2.965000e+01 -3.100000e+01  4.000000e+00
   endloop
 endfacet
 facet normal  0.000000e+00  0.000000e+00  1.000000e+00
   outer loop
     vertex  2.965000e+01  4.000000e+01  4.000000e+00
     vertex -2.965000e+01  4.000000e+01  4.000000e+00
     vertex  2.965000e+01  3.100000e+01  4.000000e+00
   endloop
 endfacet
 facet normal  0.000000e+00  0.000000e+00  1.000000e+00
   outer loop
     vertex  5.200000e+01  1.800000e+01  4.000000e+00
     vertex  2.965000e+01 -3.100000e+01  4.000000e+00
     vertex  5.200000e+01 -1.800000e+01  4.000000e+00
   endloop
 endfacet
 facet normal  0.000000e+00  0.000000e+00  1.000000e+00
   outer loop
     vertex  5.200000e+01  1.800000e+01  4.000000e+00
     vertex  2.965000e+01  3.100000e+01  4.000000e+00
     vertex  2.965000e+01 -3.100000e+01  4.000000e+00
   endloop
 endfacet
 facet normal  0.000000e+00  0.000000e+00  1.000000e+00
   outer loop
     vertex  4.635000e+01  3.100000e+01  4.000000e+00
     vertex  2.965000e+01  3.100000e+01  4.000000e+00
     vertex  5.200000e+01  1.800000e+01  4.000000e+00
   endloop
 endfacet
 facet normal  0.000000e+00  0.000000e+00  1.000000e+00
   outer loop
     vertex  5.200000e+01  3.400000e+01  4.000000e+00
     vertex  4.635000e+01  3.100000e+01  4.000000e+00
     vertex  5.200000e+01  1.800000e+01  4.000000e+00
   endloop
 endfacet
 facet normal  0.000000e+00  0.000000e+00  1.000000e+00
   outer loop
     vertex  4.635000e+01  4.000000e+01  4.000000e+00
     vertex  4.635000e+01  3.100000e+01  4.000000e+00
     vertex  5.200000e+01  3.400000e+01  4.000000e+00
   endloop
 endfacet
 facet normal  0.000000e+00  0.000000e+00  1.000000e+00
   outer loop
     vertex  5.200000e+01  4.000000e+01  4.000000e+00
     vertex  4.635000e+01  4.000000e+01  4.000000e+00
     vertex  5.200000e+01  3.400000e+01  4.000000e+00
   endloop
 endfacet
 facet normal  0.000000e+00  0.000000e+00  1.000000e+00
   outer loop
     vertex  6.000000e+01  3.400000e+01  4.000000e+00
     vertex  5.200000e+01  1.800000e+01  4.000000e+00
     vertex  6.000000e+01  1.800000e+01  4.000000e+00
   endloop
 endfacet
 facet normal  0.000000e+00  0.000000e+00  1.000000e+00
   outer loop
     vertex  6.000000e+01  3.400000e+01  4.000000e+00
     vertex  5.200000e+01  3.400000e+01  4.000000e+00
     vertex  5.200000e+01  1.800000e+01  4.000000e+00
   endloop
 endfacet
 facet normal  0.000000e+00 -1.000000e+00  0.000000e+00
   outer loop
     vertex -5.200000e+01 -3.400000e+01  0.000000e+00
     vertex -6.000000e+01 -3.400000e+01  4.000000e+00
     vertex -6.000000e+01 -3.400000e+01  0.000000e+00
   endloop
 endfacet
 facet normal -0.000000e+00 -1.000000e+00 -0.000000e+00
   outer loop
     vertex -5.200000e+01 -3.400000e+01  4.000000e+00
     vertex -6.000000e+01 -3.400000e+01  4.000000e+00
     vertex -5.200000e+01 -3.400000e+01  0.000000e+00
   endloop
 endfacet
 facet normal  0.000000e+00  0.000000e+00 -1.000000e+00
   outer loop
     vertex -5.200000e+01 -3.400000e+01  0.000000e+00
     vertex -4.635000e+01 -4.000000e+01  0.000000e+00
     vertex -5.200000e+01 -4.000000e+01  0.000000e+00
   endloop
 endfacet
 facet normal  0.000000e+00 -0.000000e+00 -1.000000e+00
   outer loop
     vertex -4.635000e+01 -3.100000e+01  0.000000e+00
     vertex -4.635000e+01 -4.000000e+01  0.000000e+00
     vertex -5.200000e+01 -3.400000e+01  0.000000e+00
   endloop
 endfacet
 facet normal -0.000000e+00  0.000000e+00 -1.000000e+00
   outer loop
     vertex -5.200000e+01 -1.800000e+01  0.000000e+00
     vertex -6.000000e+01 -3.400000e+01  0.000000e+00
     vertex -6.000000e+01 -1.800000e+01  0.000000e+00
   endloop
 endfacet
 facet normal  0.000000e+00 -0.000000e+00 -1.000000e+00
   outer loop
     vertex -5.200000e+01 -1.800000e+01  0.000000e+00
     vertex -5.200000e+01 -3.400000e+01  0.000000e+00
     vertex -6.000000e+01 -3.400000e+01  0.000000e+00
   endloop
 endfacet
 facet normal  0.000000e+00  0.000000e+00 -1.000000e+00
   outer loop
     vertex -5.200000e+01 -1.800000e+01  0.000000e+00
     vertex -4.635000e+01 -3.100000e+01  0.000000e+00
     vertex -5.200000e+01 -3.400000e+01  0.000000e+00
   endloop
 endfacet
 facet normal  0.000000e+00  0.000000e+00 -1.000000e+00
   outer loop
     vertex -2.965000e+01 -3.100000e+01  0.000000e+00
     vertex -4.635000e+01 -3.100000e+01  0.000000e+00
     vertex -5.200000e+01 -1.800000e+01  0.000000e+00
   endloop
 endfacet
 facet normal -0.000000e+00  0.000000e+00 -1.000000e+00
   outer loop
     vertex -5.200000e+01  3.400000e+01  0.000000e+00
     vertex -6.000000e+01  1.800000e+01  0.000000e+00
     vertex -6.000000e+01  3.400000e+01  0.000000e+00
   endloop
 endfacet
 facet normal  0.000000e+00 -0.000000e+00 -1.000000e+00
   outer loop
     vertex -5.200000e+01  3.400000e+01  0.000000e+00
     vertex -5.200000e+01  1.800000e+01  0.000000e+00
     vertex -6.000000e+01  1.800000e+01  0.000000e+00
   endloop
 endfacet
 facet normal -0.000000e+00  0.000000e+00 -1.000000e+00
   outer loop
     vertex -4.635000e+01  3.100000e+01  0.000000e+00
     vertex -5.200000e+01  1.800000e+01  0.000000e+00
     vertex -5.200000e+01  3.400000e+01  0.000000e+00
   endloop
 endfacet
 facet normal  0.000000e+00  0.000000e+00 -1.000000e+00
   outer loop
     vertex  2.965000e+01 -4.000000e+01  0.000000e+00
     vertex -2.965000e+01 -4.000000e+01  0.000000e+00
     vertex -2.965000e+01 -3.100000e+01  0.000000e+00
   endloop
 endfacet
 facet normal -0.000000e+00  0.000000e+00 -1.000000e+00
   outer loop
     vertex -4.635000e+01  4.000000e+01  0.000000e+00
     vertex -5.200000e+01  3.400000e+01  0.000000e+00
     vertex -5.200000e+01  4.000000e+01  0.000000e+00
   endloop
 endfacet
 facet normal  0.000000e+00 -0.000000e+00 -1.000000e+00
   outer loop
     vertex -4.635000e+01  4.000000e+01  0.000000e+00
     vertex -4.635000e+01  3.100000e+01  0.000000e+00
     vertex -5.200000e+01  3.400000e+01  0.000000e+00
   endloop
 endfacet
 facet normal -0.000000e+00 -0.000000e+00 -1.000000e+00
   outer loop
     vertex  2.965000e+01 -3.100000e+01  0.000000e+00
     vertex  2.965000e+01 -4.000000e+01  0.000000e+00
     vertex -2.965000e+01 -3.100000e+01  0.000000e+00
   endloop
 endfacet
 facet normal  0.000000e+00  0.000000e+00 -1.000000e+00
   outer loop
     vertex -2.965000e+01  3.100000e+01  0.000000e+00
     vertex -5.200000e+01 -1.800000e+01  0.000000e+00
     vertex -5.200000e+01  1.800000e+01  0.000000e+00
   endloop
 endfacet
 facet normal  0.000000e+00 -0.000000e+00 -1.000000e+00
   outer loop
     vertex -2.965000e+01  3.100000e+01  0.000000e+00
     vertex -2.965000e+01 -3.100000e+01  0.000000e+00
     vertex -5.200000e+01 -1.800000e+01  0.000000e+00
   endloop
 endfacet
 facet normal -0.000000e+00  0.000000e+00 -1.000000e+00
   outer loop
     vertex -2.965000e+01  3.100000e+01  0.000000e+00
     vertex -5.200000e+01  1.800000e+01  0.000000e+00
     vertex -4.635000e+01  3.100000e+01  0.000000e+00
   endloop
 endfacet
 facet normal  0.000000e+00  0.000000e+00 -1.000000e+00
   outer loop
     vertex -2.965000e+01  3.100000e+01  0.000000e+00
     vertex  2.965000e+01 -3.100000e+01  0.000000e+00
     vertex -2.965000e+01 -3.100000e+01  0.000000e+00
   endloop
 endfacet
 facet normal -0.000000e+00  0.000000e+00 -1.000000e+00
   outer loop
     vertex  5.200000e+01 -3.400000e+01  0.000000e+00
     vertex  4.635000e+01 -4.000000e+01  0.000000e+00
     vertex  4.635000e+01 -3.100000e+01  0.000000e+00
   endloop
 endfacet
 facet normal  0.000000e+00 -0.000000e+00 -1.000000e+00
   outer loop
     vertex  5.200000e+01 -3.400000e+01  0.000000e+00
     vertex  5.200000e+01 -4.000000e+01  0.000000e+00
     vertex  4.635000e+01 -4.000000e+01  0.000000e+00
   endloop
 endfacet
 facet normal  0.000000e+00  0.000000e+00 -1.000000e+00
   outer loop
     vertex  5.200000e+01 -1.800000e+01  0.000000e+00
     vertex  4.635000e+01 -3.100000e+01  0.000000e+00
     vertex  2.965000e+01 -3.100000e+01  0.000000e+00
   endloop
 endfacet
 facet normal  0.000000e+00 -0.000000e+00 -1.000000e+00
   outer loop
     vertex  5.200000e+01 -1.800000e+01  0.000000e+00
     vertex  5.200000e+01 -3.400000e+01  0.000000e+00
     vertex  4.635000e+01 -3.100000e+01  0.000000e+00
   endloop
 endfacet
 facet normal  0.000000e+00 -0.000000e+00 -1.000000e+00
   outer loop
     vertex  6.000000e+01 -1.800000e+01  0.000000e+00
     vertex  6.000000e+01 -3.400000e+01  0.000000e+00
     vertex  5.200000e+01 -3.400000e+01  0.000000e+00
   endloop
 endfacet
 facet normal -0.000000e+00  0.000000e+00 -1.000000e+00
   outer loop
     vertex  6.000000e+01 -1.800000e+01  0.000000e+00
     vertex  5.200000e+01 -3.400000e+01  0.000000e+00
     vertex  5.200000e+01 -1.800000e+01  0.000000e+00
   endloop
 endfacet
 facet normal -0.000000e+00 -0.000000e+00 -1.000000e+00
   outer loop
     vertex  2.965000e+01  3.100000e+01  0.000000e+00
     vertex  2.965000e+01 -3.100000e+01  0.000000e+00
     vertex -2.965000e+01  3.100000e+01  0.000000e+00
   endloop
 endfacet
 facet normal -0.000000e+00  0.000000e+00 -1.000000e+00
   outer loop
     vertex  2.965000e+01  4.000000e+01  0.000000e+00
     vertex -2.965000e+01  3.100000e+01  0.000000e+00
     vertex -2.965000e+01  4.000000e+01  0.000000e+00
   endloop
 endfacet
 facet normal  0.000000e+00 -0.000000e+00 -1.000000e+00
   outer loop
     vertex  2.965000e+01  4.000000e+01  0.000000e+00
     vertex  2.965000e+01  3.100000e+01  0.000000e+00
     vertex -2.965000e+01  3.100000e+01  0.000000e+00
   endloop
 endfacet
 facet normal  0.000000e+00 -0.000000e+00 -1.000000e+00
   outer loop
     vertex  5.200000e+01  1.800000e+01  0.000000e+00
     vertex  5.200000e+01 -1.800000e+01  0.000000e+00
     vertex  2.965000e+01 -3.100000e+01  0.000000e+00
   endloop
 endfacet
 facet normal -0.000000e+00  0.000000e+00 -1.000000e+00
   outer loop
     vertex  5.200000e+01  1.800000e+01  0.000000e+00
     vertex  2.965000e+01 -3.100000e+01  0.000000e+00
     vertex  2.965000e+01  3.100000e+01  0.000000e+00
   endloop
 endfacet
 facet normal -0.000000e+00 -0.000000e+00 -1.000000e+00
   outer loop
     vertex  4.635000e+01  3.100000e+01  0.000000e+00
     vertex  5.200000e+01  1.800000e+01  0.000000e+00
     vertex  2.965000e+01  3.100000e+01  0.000000e+00
   endloop
 endfacet
 facet normal  0.000000e+00 -0.000000e+00 -1.000000e+00
   outer loop
     vertex  5.200000e+01  3.400000e+01  0.000000e+00
     vertex  5.200000e+01  1.800000e+01  0.000000e+00
     vertex  4.635000e+01  3.100000e+01  0.000000e+00
   endloop
 endfacet
 facet normal  0.000000e+00  0.000000e+00 -1.000000e+00
   outer loop
     vertex  4.635000e+01  4.000000e+01  0.000000e+00
     vertex  5.200000e+01  3.400000e+01  0.000000e+00
     vertex  4.635000e+01  3.100000e+01  0.000000e+00
   endloop
 endfacet
 facet normal -0.000000e+00 -0.000000e+00 -1.000000e+00
   outer loop
     vertex  5.200000e+01  4.000000e+01  0.000000e+00
     vertex  5.200000e+01  3.400000e+01  0.000000e+00
     vertex  4.635000e+01  4.000000e+01  0.000000e+00
   endloop
 endfacet
 facet normal  0.000000e+00 -0.000000e+00 -1.000000e+00
   outer loop
     vertex  6.000000e+01  3.400000e+01  0.000000e+00
     vertex  6.000000e+01  1.800000e+01  0.000000e+00
     vertex  5.200000e+01  1.800000e+01  0.000000e+00
   endloop
 endfacet
 facet normal -0.000000e+00  0.000000e+00 -1.000000e+00
   outer loop
     vertex  6.000000e+01  3.400000e+01  0.000000e+00
     vertex  5.200000e+01  1.800000e+01  0.000000e+00
     vertex  5.200000e+01  3.400000e+01  0.000000e+00
   endloop
 endfacet
 facet normal  0.000000e+00 -1.000000e+00 -0.000000e+00
   outer loop
     vertex -4.635000e+01 -4.000000e+01  4.000000e+00
     vertex -5.200000e+01 -4.000000e+01  0.000000e+00
     vertex -4.635000e+01 -4.000000e+01  0.000000e+00
   endloop
 endfacet
 facet normal -0.000000e+00 -1.000000e+00  0.000000e+00
   outer loop
     vertex -4.635000e+01 -4.000000e+01  4.000000e+00
     vertex -5.200000e+01 -4.000000e+01  4.000000e+00
     vertex -5.200000e+01 -4.000000e+01  0.000000e+00
   endloop
 endfacet
 facet normal -1.000000e+00  0.000000e+00  0.000000e+00
   outer loop
     vertex -6.000000e+01 -3.400000e+01  4.000000e+00
     vertex -6.000000e+01 -1.800000e+01  0.000000e+00
     vertex -6.000000e+01 -3.400000e+01  0.000000e+00
   endloop
 endfacet
 facet normal -1.000000e+00  0.000000e+00  0.000000e+00
   outer loop
     vertex -6.000000e+01 -3.400000e+01  4.000000e+00
     vertex -6.000000e+01 -1.800000e+01  4.000000e+00
     vertex -6.000000e+01 -1.800000e+01  0.000000e+00
   endloop
 endfacet
 facet normal  0.000000e+00  1.000000e+00  0.000000e+00
   outer loop
     vertex -5.200000e+01 -1.800000e+01  0.000000e+00
     vertex -6.000000e+01 -1.800000e+01  0.000000e+00
     vertex -6.000000e+01 -1.800000e+01  4.000000e+00
   endloop
 endfacet
 facet normal  0.000000e+00  1.000000e+00  0.000000e+00
   outer loop
     vertex -5.200000e+01 -1.800000e+01  4.000000e+00
     vertex -5.200000e+01 -1.800000e+01  0.000000e+00
     vertex -6.000000e+01 -1.800000e+01  4.000000e+00
   endloop
 endfacet
 facet normal -1.000000e+00  0.000000e+00  0.000000e+00
   outer loop
     vertex -5.200000e+01 -1.800000e+01  4.000000e+00
     vertex -5.200000e+01  1.800000e+01  0.000000e+00
     vertex -5.200000e+01 -1.800000e+01  0.000000e+00
   endloop
 endfacet
 facet normal -1.000000e+00  0.000000e+00  0.000000e+00
   outer loop
     vertex -5.200000e+01 -1.800000e+01  4.000000e+00
     vertex -5.200000e+01  1.800000e+01  4.000000e+00
     vertex -5.200000e+01  1.800000e+01  0.000000e+00
   endloop
 endfacet
 facet normal  0.000000e+00 -1.000000e+00  0.000000e+00
   outer loop
     vertex -5.200000e+01  1.800000e+01  0.000000e+00
     vertex -6.000000e+01  1.800000e+01  4.000000e+00
     vertex -6.000000e+01  1.800000e+01  0.000000e+00
   endloop
 endfacet
 facet normal -0.000000e+00 -1.000000e+00 -0.000000e+00
   outer loop
     vertex -5.200000e+01  1.800000e+01  4.000000e+00
     vertex -6.000000e+01  1.800000e+01  4.000000e+00
     vertex -5.200000e+01  1.800000e+01  0.000000e+00
   endloop
 endfacet
 facet normal -1.000000e+00  0.000000e+00  0.000000e+00
   outer loop
     vertex -6.000000e+01  1.800000e+01  4.000000e+00
     vertex -6.000000e+01  3.400000e+01  0.000000e+00
     vertex -6.000000e+01  1.800000e+01  0.000000e+00
   endloop
 endfacet
 facet normal -1.000000e+00  0.000000e+00  0.000000e+00
   outer loop
     vertex -6.000000e+01  1.800000e+01  4.000000e+00
     vertex -6.000000e+01  3.400000e+01  4.000000e+00
     vertex -6.000000e+01  3.400000e+01  0.000000e+00
   endloop
 endfacet
 facet normal  0.000000e+00  1.000000e+00  0.000000e+00
   outer loop
     vertex -5.200000e+01  3.400000e+01  0.000000e+00
     vertex -6.000000e+01  3.400000e+01  0.000000e+00
     vertex -6.000000e+01  3.400000e+01  4.000000e+00
   endloop
 endfacet
 facet normal  0.000000e+00  1.000000e+00  0.000000e+00
   outer loop
     vertex -5.200000e+01  3.400000e+01  4.000000e+00
     vertex -5.200000e+01  3.400000e+01  0.000000e+00
     vertex -6.000000e+01  3.400000e+01  4.000000e+00
   endloop
 endfacet
 facet normal -1.000000e+00  0.000000e+00  0.000000e+00
   outer loop
     vertex -5.200000e+01  3.400000e+01  4.000000e+00
     vertex -5.200000e+01  4.000000e+01  0.000000e+00
     vertex -5.200000e+01  3.400000e+01  0.000000e+00
   endloop
 endfacet
 facet normal -1.000000e+00  0.000000e+00  0.000000e+00
   outer loop
     vertex -5.200000e+01  3.400000e+01  4.000000e+00
     vertex -5.200000e+01  4.000000e+01  4.000000e+00
     vertex -5.200000e+01  4.000000e+01  0.000000e+00
   endloop
 endfacet
 facet normal  0.000000e+00  1.000000e+00  0.000000e+00
   outer loop
     vertex -4.635000e+01  4.000000e+01  4.000000e+00
     vertex -4.635000e+01  4.000000e+01  0.000000e+00
     vertex -5.200000e+01  4.000000e+01  0.000000e+00
   endloop
 endfacet
 facet normal  0.000000e+00  1.000000e+00  0.000000e+00
   outer loop
     vertex -4.635000e+01  4.000000e+01  4.000000e+00
     vertex -5.200000e+01  4.000000e+01  0.000000e+00
     vertex -5.200000e+01  4.000000e+01  4.000000e+00
   endloop
 endfacet
 facet normal  1.000000e+00  0.000000e+00  0.000000e+00
   outer loop
     vertex -4.635000e+01  3.100000e+01  4.000000e+00
     vertex -4.635000e+01  3.100000e+01  0.000000e+00
     vertex -4.635000e+01  4.000000e+01  0.000000e+00
   endloop
 endfacet
 facet normal  1.000000e+00 -0.000000e+00  0.000000e+00
   outer loop
     vertex -4.635000e+01  3.100000e+01  4.000000e+00
     vertex -4.635000e+01  4.000000e+01  0.000000e+00
     vertex -4.635000e+01  4.000000e+01  4.000000e+00
   endloop
 endfacet
 facet normal  0.000000e+00  1.000000e+00  0.000000e+00
   outer loop
     vertex -2.965000e+01  3.100000e+01  0.000000e+00
     vertex -4.635000e+01  3.100000e+01  0.000000e+00
     vertex -4.635000e+01  3.100000e+01  4.000000e+00
   endloop
 endfacet
 facet normal  0.000000e+00  1.000000e+00  0.000000e+00
   outer loop
     vertex -2.965000e+01  3.100000e+01  4.000000e+00
     vertex -2.965000e+01  3.100000e+01  0.000000e+00
     vertex -4.635000e+01  3.100000e+01  4.000000e+00
   endloop
 endfacet
 facet normal -1.000000e+00  0.000000e+00  0.000000e+00
   outer loop
     vertex -2.965000e+01  3.100000e+01  4.000000e+00
     vertex -2.965000e+01  4.000000e+01  0.000000e+00
     vertex -2.965000e+01  3.100000e+01  0.000000e+00
   endloop
 endfacet
 facet normal -1.000000e+00  0.000000e+00  0.000000e+00
   outer loop
     vertex -2.965000e+01  3.100000e+01  4.000000e+00
     vertex -2.965000e+01  4.000000e+01  4.000000e+00
     vertex -2.965000e+01  4.000000e+01  0.000000e+00
   endloop
 endfacet
 facet normal  0.000000e+00  1.000000e+00  0.000000e+00
   outer loop
     vertex  2.965000e+01  4.000000e+01  0.000000e+00
     vertex -2.965000e+01  4.000000e+01  0.000000e+00
     vertex -2.965000e+01  4.000000e+01  4.000000e+00
   endloop
 endfacet
 facet normal  0.000000e+00  1.000000e+00  0.000000e+00
   outer loop
     vertex  2.965000e+01  4.000000e+01  4.000000e+00
     vertex  2.965000e+01  4.000000e+01  0.000000e+00
     vertex -2.965000e+01  4.000000e+01  4.000000e+00
   endloop
 endfacet
 facet normal  1.000000e+00  0.000000e+00  0.000000e+00
   outer loop
     vertex  2.965000e+01  3.100000e+01  4.000000e+00
     vertex  2.965000e+01  3.100000e+01  0.000000e+00
     vertex  2.965000e+01  4.000000e+01  0.000000e+00
   endloop
 endfacet
 facet normal  1.000000e+00 -3.947460e-16 -8.881784e-16
   outer loop
     vertex  2.965000e+01  3.100000e+01  4.000000e+00
     vertex  2.965000e+01  4.000000e+01  0.000000e+00
     vertex  2.965000e+01  4.000000e+01  4.000000e+00
   endloop
 endfacet
 facet normal  0.000000e+00  1.000000e+00  0.000000e+00
   outer loop
     vertex  4.635000e+01  3.100000e+01  0.000000e+00
     vertex  2.965000e+01  3.100000e+01  0.000000e+00
     vertex  2.965000e+01  3.100000e+01  4.000000e+00
   endloop
 endfacet
 facet normal  0.000000e+00  1.000000e+00  0.000000e+00
   outer loop
     vertex  4.635000e+01  3.100000e+01  4.000000e+00
     vertex  4.635000e+01  3.100000e+01  0.000000e+00
     vertex  2.965000e+01  3.100000e+01  4.000000e+00
   endloop
 endfacet
 facet normal -1.000000e+00  0.000000e+00  0.000000e+00
   outer loop
     vertex  4.635000e+01  3.100000e+01  4.000000e+00
     vertex  4.635000e+01  4.000000e+01  0.000000e+00
     vertex  4.635000e+01  3.100000e+01  0.000000e+00
   endloop
 endfacet
 facet normal -1.000000e+00 -7.894919e-16 -1.776357e-15
   outer loop
     vertex  4.635000e+01  3.100000e+01  4.000000e+00
     vertex  4.635000e+01  4.000000e+01  4.000000e+00
     vertex  4.635000e+01  4.000000e+01  0.000000e+00
   endloop
 endfacet
 facet normal  0.000000e+00  1.000000e+00  0.000000e+00
   outer loop
     vertex  5.200000e+01  4.000000e+01  4.000000e+00
     vertex  5.200000e+01  4.000000e+01  0.000000e+00
     vertex  4.635000e+01  4.000000e+01  0.000000e+00
   endloop
 endfacet
 facet normal  0.000000e+00  1.000000e+00  0.000000e+00
   outer loop
     vertex  5.200000e+01  4.000000e+01  4.000000e+00
     vertex  4.635000e+01  4.000000e+01  0.000000e+00
     vertex  4.635000e+01  4.000000e+01  4.000000e+00
   endloop
 endfacet
 facet normal  1.000000e+00  0.000000e+00  0.000000e+00
   outer loop
     vertex  5.200000e+01  3.400000e+01  4.000000e+00
     vertex  5.200000e+01  3.400000e+01  0.000000e+00
     vertex  5.200000e+01  4.000000e+01  0.000000e+00
   endloop
 endfacet
 facet normal  1.000000e+00 -0.000000e+00  0.000000e+00
   outer loop
     vertex  5.200000e+01  3.400000e+01  4.000000e+00
     vertex  5.200000e+01  4.000000e+01  0.000000e+00
     vertex  5.200000e+01  4.000000e+01  4.000000e+00
   endloop
 endfacet
 facet normal  0.000000e+00  1.000000e+00  0.000000e+00
   outer loop
     vertex  6.000000e+01  3.400000e+01  0.000000e+00
     vertex  5.200000e+01  3.400000e+01  0.000000e+00
     vertex  5.200000e+01  3.400000e+01  4.000000e+00
   endloop
 endfacet
 facet normal  0.000000e+00  1.000000e+00  0.000000e+00
   outer loop
     vertex  6.000000e+01  3.400000e+01  4.000000e+00
     vertex  6.000000e+01  3.400000e+01  0.000000e+00
     vertex  5.200000e+01  3.400000e+01  4.000000e+00
   endloop
 endfacet
 facet normal  1.000000e+00  0.000000e+00  0.000000e+00
   outer loop
     vertex  6.000000e+01  1.800000e+01  4.000000e+00
     vertex  6.000000e+01  1.800000e+01  0.000000e+00
     vertex  6.000000e+01  3.400000e+01  0.000000e+00
   endloop
 endfacet
 facet normal  1.000000e+00 -0.000000e+00  0.000000e+00
   outer loop
     vertex  6.000000e+01  1.800000e+01  4.000000e+00
     vertex  6.000000e+01  3.400000e+01  0.000000e+00
     vertex  6.000000e+01  3.400000e+01  4.000000e+00
   endloop
 endfacet
 facet normal  0.000000e+00 -1.000000e+00  0.000000e+00
   outer loop
     vertex  6.000000e+01  1.800000e+01  0.000000e+00
     vertex  5.200000e+01  1.800000e+01  4.000000e+00
     vertex  5.200000e+01  1.800000e+01  0.000000e+00
   endloop
 endfacet
 facet normal -0.000000e+00 -1.000000e+00 -0.000000e+00
   outer loop
     vertex  6.000000e+01  1.800000e+01  4.000000e+00
     vertex  5.200000e+01  1.800000e+01  4.000000e+00
     vertex  6.000000e+01  1.800000e+01  0.000000e+00
   endloop
 endfacet
 facet normal  1.000000e+00  0.000000e+00  0.000000e+00
   outer loop
     vertex  5.200000e+01 -1.800000e+01  4.000000e+00
     vertex  5.200000e+01 -1.800000e+01  0.000000e+00
     vertex  5.200000e+01  1.800000e+01  0.000000e+00
   endloop
 endfacet
 facet normal  1.000000e+00 -0.000000e+00  0.000000e+00
   outer loop
     vertex  5.200000e+01 -1.800000e+01  4.000000e+00
     vertex  5.200000e+01  1.800000e+01  0.000000e+00
     vertex  5.200000e+01  1.800000e+01  4.000000e+00
   endloop
 endfacet
 facet normal  0.000000e+00  1.000000e+00  0.000000e+00
   outer loop
     vertex  6.000000e+01 -1.800000e+01  0.000000e+00
     vertex  5.200000e+01 -1.800000e+01  0.000000e+00
     vertex  5.200000e+01 -1.800000e+01  4.000000e+00
   endloop
 endfacet
 facet normal  0.000000e+00  1.000000e+00  0.000000e+00
   outer loop
     vertex  6.000000e+01 -1.800000e+01  4.000000e+00
     vertex  6.000000e+01 -1.800000e+01  0.000000e+00
     vertex  5.200000e+01 -1.800000e+01  4.000000e+00
   endloop
 endfacet
 facet normal  1.000000e+00  0.000000e+00  0.000000e+00
   outer loop
     vertex  6.000000e+01 -3.400000e+01  4.000000e+00
     vertex  6.000000e+01 -3.400000e+01  0.000000e+00
     vertex  6.000000e+01 -1.800000e+01  0.000000e+00
   endloop
 endfacet
 facet normal  1.000000e+00 -0.000000e+00  0.000000e+00
   outer loop
     vertex  6.000000e+01 -3.400000e+01  4.000000e+00
     vertex  6.000000e+01 -1.800000e+01  0.000000e+00
     vertex  6.000000e+01 -1.800000e+01  4.000000e+00
   endloop
 endfacet
 facet normal  0.000000e+00 -1.000000e+00  0.000000e+00
   outer loop
     vertex  6.000000e+01 -3.400000e+01  0.000000e+00
     vertex  5.200000e+01 -3.400000e+01  4.000000e+00
     vertex  5.200000e+01 -3.400000e+01  0.000000e+00
   endloop
 endfacet
 facet normal -0.000000e+00 -1.000000e+00 -0.000000e+00
   outer loop
     vertex  6.000000e+01 -3.400000e+01  4.000000e+00
     vertex  5.200000e+01 -3.400000e+01  4.000000e+00
     vertex  6.000000e+01 -3.400000e+01  0.000000e+00
   endloop
 endfacet
 facet normal  1.000000e+00  0.000000e+00  0.000000e+00
   outer loop
     vertex  5.200000e+01 -4.000000e+01  4.000000e+00
     vertex  5.200000e+01 -4.000000e+01  0.000000e+00
     vertex  5.200000e+01 -3.400000e+01  0.000000e+00
   endloop
 endfacet
 facet normal  1.000000e+00 -0.000000e+00  0.000000e+00
   outer loop
     vertex  5.200000e+01 -4.000000e+01  4.000000e+00
     vertex  5.200000e+01 -3.400000e+01  0.000000e+00
     vertex  5.200000e+01 -3.400000e+01  4.000000e+00
   endloop
 endfacet
 facet normal  0.000000e+00 -1.000000e+00 -0.000000e+00
   outer loop
     vertex  5.200000e+01 -4.000000e+01  4.000000e+00
     vertex  4.635000e+01 -4.000000e+01  0.000000e+00
     vertex  5.200000e+01 -4.000000e+01  0.000000e+00
   endloop
 endfacet
 facet normal -0.000000e+00 -1.000000e+00  0.000000e+00
   outer loop
     vertex  5.200000e+01 -4.000000e+01  4.000000e+00
     vertex  4.635000e+01 -4.000000e+01  4.000000e+00
     vertex  4.635000e+01 -4.000000e+01  0.000000e+00
   endloop
 endfacet
 facet normal -1.000000e+00  0.000000e+00 -1.776357e-15
   outer loop
     vertex  4.635000e+01 -4.000000e+01  4.000000e+00
     vertex  4.635000e+01 -3.100000e+01  0.000000e+00
     vertex  4.635000e+01 -4.000000e+01  0.000000e+00
   endloop
 endfacet
 facet normal -1.000000e+00  7.894919e-16  0.000000e+00
   outer loop
     vertex  4.635000e+01 -4.000000e+01  4.000000e+00
     vertex  4.635000e+01 -3.100000e+01  4.000000e+00
     vertex  4.635000e+01 -3.100000e+01  0.000000e+00
   endloop
 endfacet
 facet normal  0.000000e+00 -1.000000e+00  0.000000e+00
   outer loop
     vertex  4.635000e+01 -3.100000e+01  0.000000e+00
     vertex  2.965000e+01 -3.100000e+01  4.000000e+00
     vertex  2.965000e+01 -3.100000e+01  0.000000e+00
   endloop
 endfacet
 facet normal -0.000000e+00 -1.000000e+00 -0.000000e+00
   outer loop
     vertex  4.635000e+01 -3.100000e+01  4.000000e+00
     vertex  2.965000e+01 -3.100000e+01  4.000000e+00
     vertex  4.635000e+01 -3.100000e+01  0.000000e+00
   endloop
 endfacet
 facet normal  1.000000e+00  0.000000e+00 -8.881784e-16
   outer loop
     vertex  2.965000e+01 -4.000000e+01  4.000000e+00
     vertex  2.965000e+01 -4.000000e+01  0.000000e+00
     vertex  2.965000e+01 -3.100000e+01  0.000000e+00
   endloop
 endfacet
 facet normal  1.000000e+00  3.947460e-16  0.000000e+00
   outer loop
     vertex  2.965000e+01 -4.000000e+01  4.000000e+00
     vertex  2.965000e+01 -3.100000e+01  0.000000e+00
     vertex  2.965000e+01 -3.100000e+01  4.000000e+00
   endloop
 endfacet
 facet normal  0.000000e+00 -1.000000e+00  0.000000e+00
   outer loop
     vertex  2.965000e+01 -4.000000e+01  0.000000e+00
     vertex -2.965000e+01 -4.000000e+01  4.000000e+00
     vertex -2.965000e+01 -4.000000e+01  0.000000e+00
   endloop
 endfacet
 facet normal -0.000000e+00 -1.000000e+00  0.000000e+00
   outer loop
     vertex  2.965000e+01 -4.000000e+01  4.000000e+00
     vertex -2.965000e+01 -4.000000e+01  4.000000e+00
     vertex  2.965000e+01 -4.000000e+01  0.000000e+00
   endloop
 endfacet
 facet normal -1.000000e+00  0.000000e+00  0.000000e+00
   outer loop
     vertex -2.965000e+01 -4.000000e+01  4.000000e+00
     vertex -2.965000e+01 -3.100000e+01  0.000000e+00
     vertex -2.965000e+01 -4.000000e+01  0.000000e+00
   endloop
 endfacet
 facet normal -1.000000e+00  0.000000e+00  0.000000e+00
   outer loop
     vertex -2.965000e+01 -4.000000e+01  4.000000e+00
     vertex -2.965000e+01 -3.100000e+01  4.000000e+00
     vertex -2.965000e+01 -3.100000e+01  0.000000e+00
   endloop
 endfacet
 facet normal  0.000000e+00 -1.000000e+00  0.000000e+00
   outer loop
     vertex -2.965000e+01 -3.100000e+01  0.000000e+00
     vertex -4.635000e+01 -3.100000e+01  4.000000e+00
     vertex -4.635000e+01 -3.100000e+01  0.000000e+00
   endloop
 endfacet
 facet normal -0.000000e+00 -1.000000e+00 -0.000000e+00
   outer loop
     vertex -2.965000e+01 -3.100000e+01  4.000000e+00
     vertex -4.635000e+01 -3.100000e+01  4.000000e+00
     vertex -2.965000e+01 -3.100000e+01  0.000000e+00
   endloop
 endfacet
 facet normal  1.000000e+00  0.000000e+00  0.000000e+00
   outer loop
     vertex -4.635000e+01 -4.000000e+01  4.000000e+00
     vertex -4.635000e+01 -4.000000e+01  0.000000e+00
     vertex -4.635000e+01 -3.100000e+01  0.000000e+00
   endloop
 endfacet
 facet normal  1.000000e+00 -0.000000e+00  0.000000e+00
   outer loop
     vertex -4.635000e+01 -4.000000e+01  4.000000e+00
     vertex -4.635000e+01 -3.100000e+01  0.000000e+00
     vertex -4.635000e+01 -3.100000e+01  4.000000e+00
   endloop
 endfacet
endsolid
