solid CadrixAI_v2_6b1dca75b7f9
 facet normal -0.000000e+00  0.000000e+00 -1.000000e+00
   outer loop
     vertex  1.200000e+02  2.500000e+02  0.000000e+00
     vertex -1.200000e+02 -2.500000e+02  0.000000e+00
     vertex -1.200000e+02  2.500000e+02  0.000000e+00
   endloop
 endfacet
 facet normal  0.000000e+00 -0.000000e+00 -1.000000e+00
   outer loop
     vertex  1.200000e+02  2.500000e+02  0.000000e+00
     vertex  1.200000e+02 -2.500000e+02  0.000000e+00
     vertex -1.200000e+02 -2.500000e+02  0.000000e+00
   endloop
 endfacet
 facet normal -1.000000e+00 -0.000000e+00  0.000000e+00
   outer loop
     vertex -1.200000e+02 -1.250000e+02  5.000000e+00
     vertex -1.200000e+02 -2.500000e+02  0.000000e+00
     vertex -1.200000e+02 -2.500000e+02  5.000000e+00
   endloop
 endfacet
 facet normal -1.000000e+00 -0.000000e+00  0.000000e+00
   outer loop
     vertex -1.200000e+02  1.250000e+02  1.700000e+01
     vertex -1.200000e+02 -1.250000e+02  5.000000e+00
     vertex -1.200000e+02 -1.250000e+02  1.700000e+01
   endloop
 endfacet
 facet normal -1.000000e+00  0.000000e+00  0.000000e+00
   outer loop
     vertex -1.200000e+02  1.250000e+02  5.000000e+00
     vertex -1.200000e+02 -1.250000e+02  5.000000e+00
     vertex -1.200000e+02  1.250000e+02  1.700000e+01
   endloop
 endfacet
 facet normal -1.000000e+00  0.000000e+00  0.000000e+00
   outer loop
     vertex -1.200000e+02  2.500000e+02  0.000000e+00
     vertex -1.200000e+02  1.250000e+02  5.000000e+00
     vertex -1.200000e+02  2.500000e+02  5.000000e+00
   endloop
 endfacet
 facet normal -1.000000e+00  0.000000e+00  0.000000e+00
   outer loop
     vertex -1.200000e+02 -2.500000e+02  0.000000e+00
     vertex -1.200000e+02  1.250000e+02  5.000000e+00
     vertex -1.200000e+02  2.500000e+02  0.000000e+00
   endloop
 endfacet
 facet normal -1.000000e+00  0.000000e+00  0.000000e+00
   outer loop
     vertex -1.200000e+02 -2.500000e+02  0.000000e+00
     vertex -1.200000e+02 -1.250000e+02  5.000000e+00
     vertex -1.200000e+02  1.250000e+02  5.000000e+00
   endloop
 endfacet
 facet normal  0.000000e+00 -1.000000e+00  0.000000e+00
   outer loop
     vertex  1.200000e+02 -2.500000e+02  0.000000e+00
     vertex  1.200000e+02 -2.500000e+02  7.381889e+01
     vertex -1.200000e+02 -2.500000e+02  5.000000e+00
   endloop
 endfacet
 facet normal  0.000000e+00 -1.000000e+00  0.000000e+00
   outer loop
     vertex  1.200000e+02 -2.500000e+02  0.000000e+00
     vertex -1.200000e+02 -2.500000e+02  5.000000e+00
     vertex -1.200000e+02 -2.500000e+02  0.000000e+00
   endloop
 endfacet
 facet normal  1.000000e+00  0.000000e+00  0.000000e+00
   outer loop
     vertex  1.200000e+02  2.500000e+02  7.381889e+01
     vertex  1.200000e+02 -2.500000e+02  7.381889e+01
     vertex  1.200000e+02 -2.500000e+02  0.000000e+00
   endloop
 endfacet
 facet normal  1.000000e+00  0.000000e+00  0.000000e+00
   outer loop
     vertex  1.200000e+02  2.500000e+02  7.381889e+01
     vertex  1.200000e+02 -2.500000e+02  0.000000e+00
     vertex  1.200000e+02  2.500000e+02  0.000000e+00
   endloop
 endfacet
 facet normal  0.000000e+00  1.000000e+00 -0.000000e+00
   outer loop
     vertex  1.200000e+02  2.500000e+02  0.000000e+00
     vertex -1.200000e+02  2.500000e+02  5.000000e+00
     vertex  1.200000e+02  2.500000e+02  7.381889e+01
   endloop
 endfacet
 facet normal  0.000000e+00  1.000000e+00  0.000000e+00
   outer loop
     vertex  1.200000e+02  2.500000e+02  0.000000e+00
     vertex -1.200000e+02  2.500000e+02  0.000000e+00
     vertex -1.200000e+02  2.500000e+02  5.000000e+00
   endloop
 endfacet
 facet normal -2.756374e-01  3.025198e-17  9.612617e-01
   outer loop
     vertex -1.110000e+02 -1.250000e+02  7.580708e+00
     vertex -1.200000e+02 -2.500000e+02  5.000000e+00
     vertex  1.200000e+02 -2.500000e+02  7.381889e+01
   endloop
 endfacet
 facet normal -2.756374e-01 -3.876586e-17  9.612617e-01
   outer loop
     vertex -1.110000e+02 -1.250000e+02  7.580708e+00
     vertex  1.200000e+02 -2.500000e+02  7.381889e+01
     vertex  5.760000e+01 -5.500000e+01  5.592598e+01
   endloop
 endfacet
 facet normal -2.756374e-01  6.830175e-18  9.612617e-01
   outer loop
     vertex -1.200000e+02 -1.250000e+02  5.000000e+00
     vertex -1.200000e+02 -2.500000e+02  5.000000e+00
     vertex -1.110000e+02 -1.250000e+02  7.580708e+00
   endloop
 endfacet
 facet normal -2.756374e-01  9.805655e-17  9.612617e-01
   outer loop
     vertex -8.160000e+01 -5.500000e+01  1.601102e+01
     vertex -1.110000e+02 -1.250000e+02  7.580708e+00
     vertex  5.760000e+01 -5.500000e+01  5.592598e+01
   endloop
 endfacet
 facet normal -2.756374e-01 -8.045825e-18  9.612617e-01
   outer loop
     vertex  1.200000e+02  2.500000e+02  7.381889e+01
     vertex  5.760000e+01  5.500000e+01  5.592598e+01
     vertex  5.760000e+01 -5.500000e+01  5.592598e+01
   endloop
 endfacet
 facet normal -2.756374e-01  0.000000e+00  9.612617e-01
   outer loop
     vertex  1.200000e+02  2.500000e+02  7.381889e+01
     vertex  5.760000e+01 -5.500000e+01  5.592598e+01
     vertex  1.200000e+02 -2.500000e+02  7.381889e+01
   endloop
 endfacet
 facet normal -2.756374e-01 -9.318889e-17  9.612617e-01
   outer loop
     vertex -1.110000e+02  1.250000e+02  7.580708e+00
     vertex -8.160000e+01  5.500000e+01  1.601102e+01
     vertex  5.760000e+01  5.500000e+01  5.592598e+01
   endloop
 endfacet
 facet normal -2.756374e-01  3.264253e-17  9.612617e-01
   outer loop
     vertex -1.110000e+02  1.250000e+02  7.580708e+00
     vertex  5.760000e+01  5.500000e+01  5.592598e+01
     vertex  1.200000e+02  2.500000e+02  7.381889e+01
   endloop
 endfacet
 facet normal -2.756374e-01 -6.830175e-18  9.612617e-01
   outer loop
     vertex -1.200000e+02  2.500000e+02  5.000000e+00
     vertex -1.200000e+02  1.250000e+02  5.000000e+00
     vertex -1.110000e+02  1.250000e+02  7.580708e+00
   endloop
 endfacet
 facet normal -2.756374e-01 -2.868674e-17  9.612617e-01
   outer loop
     vertex -1.200000e+02  2.500000e+02  5.000000e+00
     vertex -1.110000e+02  1.250000e+02  7.580708e+00
     vertex  1.200000e+02  2.500000e+02  7.381889e+01
   endloop
 endfacet
 facet normal -2.756374e-01  0.000000e+00  9.612617e-01
   outer loop
     vertex -1.110000e+02 -1.250000e+02  7.580708e+00
     vertex -8.160000e+01  5.500000e+01  1.601102e+01
     vertex -1.110000e+02  1.250000e+02  7.580708e+00
   endloop
 endfacet
 facet normal -2.756374e-01 -2.229730e-18  9.612617e-01
   outer loop
     vertex -1.110000e+02 -1.250000e+02  7.580708e+00
     vertex -8.160000e+01 -5.500000e+01  1.601102e+01
     vertex -8.160000e+01  5.500000e+01  1.601102e+01
   endloop
 endfacet
 facet normal  0.000000e+00  1.000000e+00  0.000000e+00
   outer loop
     vertex -1.200000e+02  1.250000e+02  1.700000e+01
     vertex -1.110000e+02  1.250000e+02  7.580708e+00
     vertex -1.200000e+02  1.250000e+02  5.000000e+00
   endloop
 endfacet
 facet normal  0.000000e+00  1.000000e+00  0.000000e+00
   outer loop
     vertex -1.110000e+02  1.250000e+02  1.700000e+01
     vertex -1.110000e+02  1.250000e+02  7.580708e+00
     vertex -1.200000e+02  1.250000e+02  1.700000e+01
   endloop
 endfacet
 facet normal  1.000000e+00  0.000000e+00  0.000000e+00
   outer loop
     vertex -1.110000e+02 -1.250000e+02  1.700000e+01
     vertex -1.110000e+02 -1.250000e+02  7.580708e+00
     vertex -1.110000e+02  1.250000e+02  7.580708e+00
   endloop
 endfacet
 facet normal  1.000000e+00 -0.000000e+00  0.000000e+00
   outer loop
     vertex -1.110000e+02 -1.250000e+02  1.700000e+01
     vertex -1.110000e+02  1.250000e+02  7.580708e+00
     vertex -1.110000e+02  1.250000e+02  1.700000e+01
   endloop
 endfacet
 facet normal  0.000000e+00 -1.000000e+00  0.000000e+00
   outer loop
     vertex -1.200000e+02 -1.250000e+02  1.700000e+01
     vertex -1.200000e+02 -1.250000e+02  5.000000e+00
     vertex -1.110000e+02 -1.250000e+02  7.580708e+00
   endloop
 endfacet
 facet normal -0.000000e+00 -1.000000e+00 -0.000000e+00
   outer loop
     vertex -1.110000e+02 -1.250000e+02  1.700000e+01
     vertex -1.200000e+02 -1.250000e+02  1.700000e+01
     vertex -1.110000e+02 -1.250000e+02  7.580708e+00
   endloop
 endfacet
 facet normal  0.000000e+00 -1.000000e+00  0.000000e+00
   outer loop
     vertex  5.760000e+01  5.500000e+01  5.000000e+00
     vertex -8.160000e+01  5.500000e+01  1.601102e+01
     vertex -8.160000e+01  5.500000e+01  5.000000e+00
   endloop
 endfacet
 facet normal  0.000000e+00 -1.000000e+00 -0.000000e+00
   outer loop
     vertex  5.760000e+01  5.500000e+01  5.592598e+01
     vertex -8.160000e+01  5.500000e+01  1.601102e+01
     vertex  5.760000e+01  5.500000e+01  5.000000e+00
   endloop
 endfacet
 facet normal  1.000000e+00  0.000000e+00  0.000000e+00
   outer loop
     vertex -8.160000e+01 -5.500000e+01  1.601102e+01
     vertex -8.160000e+01 -5.500000e+01  5.000000e+00
     vertex -8.160000e+01  5.500000e+01  5.000000e+00
   endloop
 endfacet
 facet normal  1.000000e+00 -0.000000e+00  0.000000e+00
   outer loop
     vertex -8.160000e+01 -5.500000e+01  1.601102e+01
     vertex -8.160000e+01  5.500000e+01  5.000000e+00
     vertex -8.160000e+01  5.500000e+01  1.601102e+01
   endloop
 endfacet
 facet normal -1.000000e+00  0.000000e+00  0.000000e+00
   outer loop
     vertex  5.760000e+01 -5.500000e+01  5.592598e+01
     vertex  5.760000e+01  5.500000e+01  5.000000e+00
     vertex  5.760000e+01 -5.500000e+01  5.000000e+00
   endloop
 endfacet
 facet normal -1.000000e+00  0.000000e+00  0.000000e+00
   outer loop
     vertex  5.760000e+01 -5.500000e+01  5.592598e+01
     vertex  5.760000e+01  5.500000e+01  5.592598e+01
     vertex  5.760000e+01  5.500000e+01  5.000000e+00
   endloop
 endfacet
 facet normal  0.000000e+00  1.000000e+00  0.000000e+00
   outer loop
     vertex  5.760000e+01 -5.500000e+01  5.000000e+00
     vertex -8.160000e+01 -5.500000e+01  5.000000e+00
     vertex -8.160000e+01 -5.500000e+01  1.601102e+01
   endloop
 endfacet
 facet normal  0.000000e+00  1.000000e+00  0.000000e+00
   outer loop
     vertex  5.760000e+01 -5.500000e+01  5.592598e+01
     vertex  5.760000e+01 -5.500000e+01  5.000000e+00
     vertex -8.160000e+01 -5.500000e+01  1.601102e+01
   endloop
 endfacet
 facet normal  0.000000e+00  0.000000e+00  1.000000e+00
   outer loop
     vertex -1.110000e+02  1.250000e+02  1.700000e+01
     vertex -1.200000e+02  1.250000e+02  1.700000e+01
     vertex -1.200000e+02 -1.250000e+02  1.700000e+01
   endloop
 endfacet
 facet normal  0.000000e+00  0.000000e+00  1.000000e+00
   outer loop
     vertex -1.110000e+02  1.250000e+02  1.700000e+01
     vertex -1.200000e+02 -1.250000e+02  1.700000e+01
     vertex -1.110000e+02 -1.250000e+02  1.700000e+01
   endloop
 endfacet
 facet normal  0.000000e+00  0.000000e+00  1.000000e+00
   outer loop
     vertex  5.760000e+01  5.500000e+01  5.000000e+00
     vertex -8.160000e+01  5.500000e+01  5.000000e+00
     vertex -8.160000e+01 -5.500000e+01  5.000000e+00
   endloop
 endfacet
 facet normal  0.000000e+00  0.000000e+00  1.000000e+00
   outer loop
     vertex  5.760000e+01  5.500000e+01  5.000000e+00
     vertex -8.160000e+01 -5.500000e+01  5.000000e+00
     vertex  5.760000e+01 -5.500000e+01  5.000000e+00
   endloop
 endfacet
endsolid
