solid CadrixAI_v2_8c3142868607
 facet normal  8.660254e-01  5.000000e-01 -1.032148e-17
   outer loop
     vertex  3.500000e+00  6.062178e+00  0.000000e+00
     vertex  7.000000e+00  8.881784e-16  5.000000e+00
     vertex  7.000000e+00  8.881784e-16  0.000000e+00
   endloop
 endfacet
 facet normal  8.660254e-01  5.000000e-01 -0.000000e+00
   outer loop
     vertex  3.500000e+00  6.062178e+00  0.000000e+00
     vertex  3.500000e+00  6.062178e+00  5.000000e+00
     vertex  7.000000e+00  8.881784e-16  5.000000e+00
   endloop
 endfacet
 facet normal  8.660254e-01 -5.000000e-01 -1.827617e-17
   outer loop
     vertex  7.000000e+00  8.881784e-16  0.000000e+00
     vertex  3.500000e+00 -6.062178e+00  5.000000e+00
     vertex  3.500000e+00 -6.062178e+00  0.000000e+00
   endloop
 endfacet
 facet normal  8.660254e-01 -5.000000e-01  0.000000e+00
   outer loop
     vertex  7.000000e+00  8.881784e-16  0.000000e+00
     vertex  7.000000e+00  8.881784e-16  5.000000e+00
     vertex  3.500000e+00 -6.062178e+00  5.000000e+00
   endloop
 endfacet
 facet normal  1.268826e-16  1.000000e+00  0.000000e+00
   outer loop
     vertex -3.500000e+00  6.062178e+00  0.000000e+00
     vertex  3.500000e+00  6.062178e+00  5.000000e+00
     vertex  3.500000e+00  6.062178e+00  0.000000e+00
   endloop
 endfacet
 facet normal  1.268826e-16  1.000000e+00 -0.000000e+00
   outer loop
     vertex -3.500000e+00  6.062178e+00  0.000000e+00
     vertex -3.500000e+00  6.062178e+00  5.000000e+00
     vertex  3.500000e+00  6.062178e+00  5.000000e+00
   endloop
 endfacet
 facet normal  0.000000e+00  0.000000e+00 -1.000000e+00
   outer loop
     vertex -3.500000e+00  6.062178e+00  0.000000e+00
     vertex -3.500000e+00 -6.062178e+00  0.000000e+00
     vertex -7.000000e+00  1.745431e-15  0.000000e+00
   endloop
 endfacet
 facet normal  0.000000e+00 -0.000000e+00 -1.000000e+00
   outer loop
     vertex -3.500000e+00  6.062178e+00  0.000000e+00
     vertex  3.500000e+00 -6.062178e+00  0.000000e+00
     vertex -3.500000e+00 -6.062178e+00  0.000000e+00
   endloop
 endfacet
 facet normal  0.000000e+00 -0.000000e+00 -1.000000e+00
   outer loop
     vertex  3.500000e+00  6.062178e+00  0.000000e+00
     vertex  7.000000e+00  8.881784e-16  0.000000e+00
     vertex  3.500000e+00 -6.062178e+00  0.000000e+00
   endloop
 endfacet
 facet normal -0.000000e+00  0.000000e+00 -1.000000e+00
   outer loop
     vertex  3.500000e+00  6.062178e+00  0.000000e+00
     vertex  3.500000e+00 -6.062178e+00  0.000000e+00
     vertex -3.500000e+00  6.062178e+00  0.000000e+00
   endloop
 endfacet
 facet normal  0.000000e+00  0.000000e+00  1.000000e+00
   outer loop
     vertex -4.000000e+00  1.378037e-15  5.000000e+00
     vertex -7.000000e+00  1.745431e-15  5.000000e+00
     vertex -3.500000e+00 -6.062178e+00  5.000000e+00
   endloop
 endfacet
 facet normal  0.000000e+00  0.000000e+00  1.000000e+00
   outer loop
     vertex -4.000000e+00  1.378037e-15  5.000000e+00
     vertex -3.500000e+00 -6.062178e+00  5.000000e+00
     vertex -2.000000e+00 -3.464102e+00  5.000000e+00
   endloop
 endfacet
 facet normal  0.000000e+00  0.000000e+00  1.000000e+00
   outer loop
     vertex  2.000000e+00 -3.464102e+00  5.000000e+00
     vertex -3.500000e+00 -6.062178e+00  5.000000e+00
     vertex  3.500000e+00 -6.062178e+00  5.000000e+00
   endloop
 endfacet
 facet normal  0.000000e+00  0.000000e+00  1.000000e+00
   outer loop
     vertex  2.000000e+00 -3.464102e+00  5.000000e+00
     vertex -2.000000e+00 -3.464102e+00  5.000000e+00
     vertex -3.500000e+00 -6.062178e+00  5.000000e+00
   endloop
 endfacet
 facet normal  0.000000e+00  0.000000e+00  1.000000e+00
   outer loop
     vertex -3.500000e+00  6.062178e+00  5.000000e+00
     vertex -4.000000e+00  1.378037e-15  5.000000e+00
     vertex -2.000000e+00  3.464102e+00  5.000000e+00
   endloop
 endfacet
 facet normal  0.000000e+00  0.000000e+00  1.000000e+00
   outer loop
     vertex -3.500000e+00  6.062178e+00  5.000000e+00
     vertex -7.000000e+00  1.745431e-15  5.000000e+00
     vertex -4.000000e+00  1.378037e-15  5.000000e+00
   endloop
 endfacet
 facet normal  0.000000e+00  0.000000e+00  1.000000e+00
   outer loop
     vertex  2.000000e+00  3.464102e+00  5.000000e+00
     vertex -3.500000e+00  6.062178e+00  5.000000e+00
     vertex -2.000000e+00  3.464102e+00  5.000000e+00
   endloop
 endfacet
 facet normal  0.000000e+00  0.000000e+00  1.000000e+00
   outer loop
     vertex  7.000000e+00  8.881784e-16  5.000000e+00
     vertex  4.000000e+00  8.881784e-16  5.000000e+00
     vertex  2.000000e+00 -3.464102e+00  5.000000e+00
   endloop
 endfacet
 facet normal  0.000000e+00  0.000000e+00  1.000000e+00
   outer loop
     vertex  7.000000e+00  8.881784e-16  5.000000e+00
     vertex  2.000000e+00 -3.464102e+00  5.000000e+00
     vertex  3.500000e+00 -6.062178e+00  5.000000e+00
   endloop
 endfacet
 facet normal  0.000000e+00  0.000000e+00  1.000000e+00
   outer loop
     vertex  3.500000e+00  6.062178e+00  5.000000e+00
     vertex  2.000000e+00  3.464102e+00  5.000000e+00
     vertex  4.000000e+00  8.881784e-16  5.000000e+00
   endloop
 endfacet
 facet normal  0.000000e+00  0.000000e+00  1.000000e+00
   outer loop
     vertex  3.500000e+00  6.062178e+00  5.000000e+00
     vertex  4.000000e+00  8.881784e-16  5.000000e+00
     vertex  7.000000e+00  8.881784e-16  5.000000e+00
   endloop
 endfacet
 facet normal  0.000000e+00  0.000000e+00  1.000000e+00
   outer loop
     vertex  3.500000e+00  6.062178e+00  5.000000e+00
     vertex -3.500000e+00  6.062178e+00  5.000000e+00
     vertex  2.000000e+00  3.464102e+00  5.000000e+00
   endloop
 endfacet
 facet normal -6.344132e-16 -1.000000e+00  4.507777e-32
   outer loop
     vertex  3.500000e+00 -6.062178e+00  0.000000e+00
     vertex -3.500000e+00 -6.062178e+00  5.000000e+00
     vertex -3.500000e+00 -6.062178e+00  0.000000e+00
   endloop
 endfacet
 facet normal -6.344132e-16 -1.000000e+00  0.000000e+00
   outer loop
     vertex  3.500000e+00 -6.062178e+00  0.000000e+00
     vertex  3.500000e+00 -6.062178e+00  5.000000e+00
     vertex -3.500000e+00 -6.062178e+00  5.000000e+00
   endloop
 endfacet
 facet normal -8.660254e-01  5.000000e-01  4.122050e-17
   outer loop
     vertex -7.000000e+00  1.745431e-15  0.000000e+00
     vertex -3.500000e+00  6.062178e+00  5.000000e+00
     vertex -3.500000e+00  6.062178e+00  0.000000e+00
   endloop
 endfacet
 facet normal -8.660254e-01  5.000000e-01  0.000000e+00
   outer loop
     vertex -7.000000e+00  1.745431e-15  0.000000e+00
     vertex -7.000000e+00  1.745431e-15  5.000000e+00
     vertex -3.500000e+00  6.062178e+00  5.000000e+00
   endloop
 endfacet
 facet normal -8.660254e-01 -5.000000e-01  4.733572e-18
   outer loop
     vertex -3.500000e+00 -6.062178e+00  0.000000e+00
     vertex -7.000000e+00  1.745431e-15  5.000000e+00
     vertex -7.000000e+00  1.745431e-15  0.000000e+00
   endloop
 endfacet
 facet normal -8.660254e-01 -5.000000e-01  0.000000e+00
   outer loop
     vertex -3.500000e+00 -6.062178e+00  0.000000e+00
     vertex -3.500000e+00 -6.062178e+00  5.000000e+00
     vertex -7.000000e+00  1.745431e-15  5.000000e+00
   endloop
 endfacet
 facet normal  8.660254e-01  5.000000e-01  3.435042e-18
   outer loop
     vertex  2.000000e+00  3.464102e+00  5.000000e+00
     vertex  4.000000e+00  8.881784e-16  3.500000e+01
     vertex  4.000000e+00  8.881784e-16  5.000000e+00
   endloop
 endfacet
 facet normal  8.660254e-01  5.000000e-01 -0.000000e+00
   outer loop
     vertex  2.000000e+00  3.464102e+00  5.000000e+00
     vertex  2.000000e+00  3.464102e+00  3.500000e+01
     vertex  4.000000e+00  8.881784e-16  3.500000e+01
   endloop
 endfacet
 facet normal  1.110223e-16  1.000000e+00  0.000000e+00
   outer loop
     vertex -2.000000e+00  3.464102e+00  5.000000e+00
     vertex  2.000000e+00  3.464102e+00  3.500000e+01
     vertex  2.000000e+00  3.464102e+00  5.000000e+00
   endloop
 endfacet
 facet normal  1.110223e-16  1.000000e+00 -0.000000e+00
   outer loop
     vertex -2.000000e+00  3.464102e+00  5.000000e+00
     vertex -2.000000e+00  3.464102e+00  3.500000e+01
     vertex  2.000000e+00  3.464102e+00  3.500000e+01
   endloop
 endfacet
 facet normal -8.660254e-01  5.000000e-01  3.435042e-18
   outer loop
     vertex -4.000000e+00  1.378037e-15  5.000000e+00
     vertex -2.000000e+00  3.464102e+00  3.500000e+01
     vertex -2.000000e+00  3.464102e+00  5.000000e+00
   endloop
 endfacet
 facet normal -8.660254e-01  5.000000e-01  0.000000e+00
   outer loop
     vertex -4.000000e+00  1.378037e-15  5.000000e+00
     vertex -4.000000e+00  1.378037e-15  3.500000e+01
     vertex -2.000000e+00  3.464102e+00  3.500000e+01
   endloop
 endfacet
 facet normal -8.660254e-01 -5.000000e-01 -5.314028e-19
   outer loop
     vertex -2.000000e+00 -3.464102e+00  5.000000e+00
     vertex -4.000000e+00  1.378037e-15  3.500000e+01
     vertex -4.000000e+00  1.378037e-15  5.000000e+00
   endloop
 endfacet
 facet normal -8.660254e-01 -5.000000e-01  0.000000e+00
   outer loop
     vertex -2.000000e+00 -3.464102e+00  5.000000e+00
     vertex -2.000000e+00 -3.464102e+00  3.500000e+01
     vertex -4.000000e+00  1.378037e-15  3.500000e+01
   endloop
 endfacet
 facet normal -6.661338e-16 -1.000000e+00 -6.573841e-33
   outer loop
     vertex  2.000000e+00 -3.464102e+00  5.000000e+00
     vertex -2.000000e+00 -3.464102e+00  3.500000e+01
     vertex -2.000000e+00 -3.464102e+00  5.000000e+00
   endloop
 endfacet
 facet normal -6.661338e-16 -1.000000e+00  0.000000e+00
   outer loop
     vertex  2.000000e+00 -3.464102e+00  5.000000e+00
     vertex  2.000000e+00 -3.464102e+00  3.500000e+01
     vertex -2.000000e+00 -3.464102e+00  3.500000e+01
   endloop
 endfacet
 facet normal  8.660254e-01 -5.000000e-01 -2.514625e-18
   outer loop
     vertex  4.000000e+00  8.881784e-16  5.000000e+00
     vertex  2.000000e+00 -3.464102e+00  3.500000e+01
     vertex  2.000000e+00 -3.464102e+00  5.000000e+00
   endloop
 endfacet
 facet normal  8.660254e-01 -5.000000e-01  0.000000e+00
   outer loop
     vertex  4.000000e+00  8.881784e-16  5.000000e+00
     vertex  4.000000e+00  8.881784e-16  3.500000e+01
     vertex  2.000000e+00 -3.464102e+00  3.500000e+01
   endloop
 endfacet
 facet normal  0.000000e+00  0.000000e+00  1.000000e+00
   outer loop
     vertex  4.000000e+00  8.881784e-16  3.500000e+01
     vertex -2.000000e+00  3.464102e+00  3.500000e+01
     vertex -4.000000e+00  1.378037e-15  3.500000e+01
   endloop
 endfacet
 facet normal  0.000000e+00  0.000000e+00  1.000000e+00
   outer loop
     vertex  4.000000e+00  8.881784e-16  3.500000e+01
     vertex -4.000000e+00  1.378037e-15  3.500000e+01
     vertex -2.000000e+00 -3.464102e+00  3.500000e+01
   endloop
 endfacet
 facet normal  0.000000e+00  0.000000e+00  1.000000e+00
   outer loop
     vertex  4.000000e+00  8.881784e-16  3.500000e+01
     vertex -2.000000e+00 -3.464102e+00  3.500000e+01
     vertex  2.000000e+00 -3.464102e+00  3.500000e+01
   endloop
 endfacet
 facet normal  0.000000e+00  0.000000e+00  1.000000e+00
   outer loop
     vertex  2.000000e+00  3.464102e+00  3.500000e+01
     vertex -2.000000e+00  3.464102e+00  3.500000e+01
     vertex  4.000000e+00  8.881784e-16  3.500000e+01
   endloop
 endfacet
endsolid
