solid CadrixAI_v2_93125546d0d9_lid
 facet normal -1.000000e+00  0.000000e+00  0.000000e+00
   outer loop
     vertex -5.310000e+01 -4.310000e+01  0.000000e+00
     vertex -5.310000e+01  4.310000e+01  1.600000e+01
     vertex -5.310000e+01  4.310000e+01  0.000000e+00
   endloop
 endfacet
 facet normal -1.000000e+00  0.000000e+00  0.000000e+00
   outer loop
     vertex -5.310000e+01 -4.310000e+01  1.600000e+01
     vertex -5.310000e+01  4.310000e+01  1.600000e+01
     vertex -5.310000e+01 -4.310000e+01  0.000000e+00
   endloop
 endfacet
 facet normal  0.000000e+00 -1.000000e+00 -0.000000e+00
   outer loop
     vertex  5.310000e+01 -4.310000e+01  1.600000e+01
     vertex -5.310000e+01 -4.310000e+01  0.000000e+00
     vertex  5.310000e+01 -4.310000e+01  0.000000e+00
   endloop
 endfacet
 facet normal -0.000000e+00 -1.000000e+00  0.000000e+00
   outer loop
     vertex  5.310000e+01 -4.310000e+01  1.600000e+01
     vertex -5.310000e+01 -4.310000e+01  1.600000e+01
     vertex -5.310000e+01 -4.310000e+01  0.000000e+00
   endloop
 endfacet
 facet normal  0.000000e+00  0.000000e+00  1.000000e+00
   outer loop
     vertex -5.310000e+01  4.310000e+01  1.600000e+01
     vertex -5.040000e+01 -4.040000e+01  1.600000e+01
     vertex -5.040000e+01  4.040000e+01  1.600000e+01
   endloop
 endfacet
 facet normal  0.000000e+00  0.000000e+00  1.000000e+00
   outer loop
     vertex -5.310000e+01  4.310000e+01  1.600000e+01
     vertex -5.310000e+01 -4.310000e+01  1.600000e+01
     vertex -5.040000e+01 -4.040000e+01  1.600000e+01
   endloop
 endfacet
 facet normal  0.000000e+00  0.000000e+00  1.000000e+00
   outer loop
     vertex  5.310000e+01 -4.310000e+01  1.600000e+01
     vertex -5.040000e+01 -4.040000e+01  1.600000e+01
     vertex -5.310000e+01 -4.310000e+01  1.600000e+01
   endloop
 endfacet
 facet normal  0.000000e+00  0.000000e+00  1.000000e+00
   outer loop
     vertex  5.040000e+01 -4.040000e+01  1.600000e+01
     vertex -5.040000e+01 -4.040000e+01  1.600000e+01
     vertex  5.310000e+01 -4.310000e+01  1.600000e+01
   endloop
 endfacet
 facet normal  0.000000e+00  0.000000e+00  1.000000e+00
   outer loop
     vertex  5.040000e+01  4.040000e+01  1.600000e+01
     vertex  5.040000e+01 -4.040000e+01  1.600000e+01
     vertex  5.310000e+01 -4.310000e+01  1.600000e+01
   endloop
 endfacet
 facet normal  0.000000e+00  0.000000e+00  1.000000e+00
   outer loop
     vertex  5.310000e+01  4.310000e+01  1.600000e+01
     vertex  5.040000e+01  4.040000e+01  1.600000e+01
     vertex  5.310000e+01 -4.310000e+01  1.600000e+01
   endloop
 endfacet
 facet normal  0.000000e+00  0.000000e+00  1.000000e+00
   outer loop
     vertex  5.310000e+01  4.310000e+01  1.600000e+01
     vertex -5.310000e+01  4.310000e+01  1.600000e+01
     vertex -5.040000e+01  4.040000e+01  1.600000e+01
   endloop
 endfacet
 facet normal  0.000000e+00  0.000000e+00  1.000000e+00
   outer loop
     vertex  5.310000e+01  4.310000e+01  1.600000e+01
     vertex -5.040000e+01  4.040000e+01  1.600000e+01
     vertex  5.040000e+01  4.040000e+01  1.600000e+01
   endloop
 endfacet
 facet normal  0.000000e+00  1.000000e+00  0.000000e+00
   outer loop
     vertex  5.310000e+01  4.310000e+01  1.600000e+01
     vertex  5.310000e+01  4.310000e+01  0.000000e+00
     vertex -5.310000e+01  4.310000e+01  0.000000e+00
   endloop
 endfacet
 facet normal  0.000000e+00  1.000000e+00  0.000000e+00
   outer loop
     vertex  5.310000e+01  4.310000e+01  1.600000e+01
     vertex -5.310000e+01  4.310000e+01  0.000000e+00
     vertex -5.310000e+01  4.310000e+01  1.600000e+01
   endloop
 endfacet
 facet normal -0.000000e+00  0.000000e+00 -1.000000e+00
   outer loop
     vertex  5.310000e+01  4.310000e+01  0.000000e+00
     vertex -5.310000e+01 -4.310000e+01  0.000000e+00
     vertex -5.310000e+01  4.310000e+01  0.000000e+00
   endloop
 endfacet
 facet normal  0.000000e+00 -0.000000e+00 -1.000000e+00
   outer loop
     vertex  5.310000e+01  4.310000e+01  0.000000e+00
     vertex  5.310000e+01 -4.310000e+01  0.000000e+00
     vertex -5.310000e+01 -4.310000e+01  0.000000e+00
   endloop
 endfacet
 facet normal  1.000000e+00  0.000000e+00  0.000000e+00
   outer loop
     vertex  5.310000e+01 -4.310000e+01  0.000000e+00
     vertex  5.310000e+01  4.310000e+01  0.000000e+00
     vertex  5.310000e+01  4.310000e+01  1.600000e+01
   endloop
 endfacet
 facet normal  1.000000e+00 -0.000000e+00  0.000000e+00
   outer loop
     vertex  5.310000e+01 -4.310000e+01  1.600000e+01
     vertex  5.310000e+01 -4.310000e+01  0.000000e+00
     vertex  5.310000e+01  4.310000e+01  1.600000e+01
   endloop
 endfacet
 facet normal  1.000000e+00  0.000000e+00  0.000000e+00
   outer loop
     vertex -5.040000e+01 -4.040000e+01  1.600000e+01
     vertex -5.040000e+01 -4.040000e+01  3.000000e+00
     vertex -5.040000e+01  4.040000e+01  3.000000e+00
   endloop
 endfacet
 facet normal  1.000000e+00 -0.000000e+00  0.000000e+00
   outer loop
     vertex -5.040000e+01 -4.040000e+01  1.600000e+01
     vertex -5.040000e+01  4.040000e+01  3.000000e+00
     vertex -5.040000e+01  4.040000e+01  1.600000e+01
   endloop
 endfacet
 facet normal  0.000000e+00  1.000000e+00  0.000000e+00
   outer loop
     vertex  5.040000e+01 -4.040000e+01  3.000000e+00
     vertex -5.040000e+01 -4.040000e+01  3.000000e+00
     vertex -5.040000e+01 -4.040000e+01  1.600000e+01
   endloop
 endfacet
 facet normal  0.000000e+00  1.000000e+00  0.000000e+00
   outer loop
     vertex  5.040000e+01 -4.040000e+01  1.600000e+01
     vertex  5.040000e+01 -4.040000e+01  3.000000e+00
     vertex -5.040000e+01 -4.040000e+01  1.600000e+01
   endloop
 endfacet
 facet normal -1.000000e+00  0.000000e+00  0.000000e+00
   outer loop
     vertex  5.040000e+01 -4.040000e+01  1.600000e+01
     vertex  5.040000e+01  4.040000e+01  3.000000e+00
     vertex  5.040000e+01 -4.040000e+01  3.000000e+00
   endloop
 endfacet
 facet normal -1.000000e+00  0.000000e+00  0.000000e+00
   outer loop
     vertex  5.040000e+01 -4.040000e+01  1.600000e+01
     vertex  5.040000e+01  4.040000e+01  1.600000e+01
     vertex  5.040000e+01  4.040000e+01  3.000000e+00
   endloop
 endfacet
 facet normal  0.000000e+00 -1.000000e+00  0.000000e+00
   outer loop
     vertex  5.040000e+01  4.040000e+01  3.000000e+00
     vertex -5.040000e+01  4.040000e+01  1.600000e+01
     vertex -5.040000e+01  4.040000e+01  3.000000e+00
   endloop
 endfacet
 facet normal -0.000000e+00 -1.000000e+00 -0.000000e+00
   outer loop
     vertex  5.040000e+01  4.040000e+01  1.600000e+01
     vertex -5.040000e+01  4.040000e+01  1.600000e+01
     vertex  5.040000e+01  4.040000e+01  3.000000e+00
   endloop
 endfacet
 facet normal  0.000000e+00  0.000000e+00  1.000000e+00
   outer loop
     vertex  5.040000e+01  4.040000e+01  3.000000e+00
     vertex -5.040000e+01  4.040000e+01  3.000000e+00
     vertex -5.040000e+01 -4.040000e+01  3.000000e+00
   endloop
 endfacet
 facet normal  0.000000e+00  0.000000e+00  1.000000e+00
   outer loop
     vertex  5.040000e+01  4.040000e+01  3.000000e+00
     vertex -5.040000e+01 -4.040000e+01  3.000000e+00
     vertex  5.040000e+01 -4.040000e+01  3.000000e+00
   endloop
 endfacet
endsolid
