solid CadrixAI_v2_c05436b56a72_lid
 facet normal -1.000000e+00  0.000000e+00  0.000000e+00
   outer loop
     vertex -4.730000e+01 -3.230000e+01  0.000000e+00
     vertex -4.730000e+01  3.230000e+01  1.000000e+01
     vertex -4.730000e+01  3.230000e+01  0.000000e+00
   endloop
 endfacet
 facet normal -1.000000e+00  0.000000e+00  0.000000e+00
   outer loop
     vertex -4.730000e+01 -3.230000e+01  1.000000e+01
     vertex -4.730000e+01  3.230000e+01  1.000000e+01
     vertex -4.730000e+01 -3.230000e+01  0.000000e+00
   endloop
 endfacet
 facet normal  0.000000e+00 -1.000000e+00 -0.000000e+00
   outer loop
     vertex  4.730000e+01 -3.230000e+01  1.000000e+01
     vertex -4.730000e+01 -3.230000e+01  0.000000e+00
     vertex  4.730000e+01 -3.230000e+01  0.000000e+00
   endloop
 endfacet
 facet normal -0.000000e+00 -1.000000e+00  0.000000e+00
   outer loop
     vertex  4.730000e+01 -3.230000e+01  1.000000e+01
     vertex -4.730000e+01 -3.230000e+01  1.000000e+01
     vertex -4.730000e+01 -3.230000e+01  0.000000e+00
   endloop
 endfacet
 facet normal  0.000000e+00  0.000000e+00  1.000000e+00
   outer loop
     vertex -4.460000e+01  2.960000e+01  1.000000e+01
     vertex -4.730000e+01 -3.230000e+01  1.000000e+01
     vertex -4.460000e+01 -2.960000e+01  1.000000e+01
   endloop
 endfacet
 facet normal  0.000000e+00  0.000000e+00  1.000000e+00
   outer loop
     vertex -4.730000e+01  3.230000e+01  1.000000e+01
     vertex -4.730000e+01 -3.230000e+01  1.000000e+01
     vertex -4.460000e+01  2.960000e+01  1.000000e+01
   endloop
 endfacet
 facet normal  0.000000e+00  0.000000e+00  1.000000e+00
   outer loop
     vertex  4.460000e+01 -2.960000e+01  1.000000e+01
     vertex -4.730000e+01 -3.230000e+01  1.000000e+01
     vertex  4.730000e+01 -3.230000e+01  1.000000e+01
   endloop
 endfacet
 facet normal  0.000000e+00  0.000000e+00  1.000000e+00
   outer loop
     vertex  4.460000e+01 -2.960000e+01  1.000000e+01
     vertex -4.460000e+01 -2.960000e+01  1.000000e+01
     vertex -4.730000e+01 -3.230000e+01  1.000000e+01
   endloop
 endfacet
 facet normal  0.000000e+00  0.000000e+00  1.000000e+00
   outer loop
     vertex  4.730000e+01  3.230000e+01  1.000000e+01
     vertex  4.460000e+01  2.960000e+01  1.000000e+01
     vertex  4.460000e+01 -2.960000e+01  1.000000e+01
   endloop
 endfacet
 facet normal  0.000000e+00  0.000000e+00  1.000000e+00
   outer loop
     vertex  4.730000e+01  3.230000e+01  1.000000e+01
     vertex  4.460000e+01 -2.960000e+01  1.000000e+01
     vertex  4.730000e+01 -3.230000e+01  1.000000e+01
   endloop
 endfacet
 facet normal  0.000000e+00  0.000000e+00  1.000000e+00
   outer loop
     vertex  4.730000e+01  3.230000e+01  1.000000e+01
     vertex -4.730000e+01  3.230000e+01  1.000000e+01
     vertex -4.460000e+01  2.960000e+01  1.000000e+01
   endloop
 endfacet
 facet normal  0.000000e+00  0.000000e+00  1.000000e+00
   outer loop
     vertex  4.730000e+01  3.230000e+01  1.000000e+01
     vertex -4.460000e+01  2.960000e+01  1.000000e+01
     vertex  4.460000e+01  2.960000e+01  1.000000e+01
   endloop
 endfacet
 facet normal  0.000000e+00  1.000000e+00  0.000000e+00
   outer loop
     vertex  4.730000e+01  3.230000e+01  1.000000e+01
     vertex  4.730000e+01  3.230000e+01  0.000000e+00
     vertex -4.730000e+01  3.230000e+01  0.000000e+00
   endloop
 endfacet
 facet normal  0.000000e+00  1.000000e+00  0.000000e+00
   outer loop
     vertex  4.730000e+01  3.230000e+01  1.000000e+01
     vertex -4.730000e+01  3.230000e+01  0.000000e+00
     vertex -4.730000e+01  3.230000e+01  1.000000e+01
   endloop
 endfacet
 facet normal  0.000000e+00  0.000000e+00 -1.000000e+00
   outer loop
     vertex  4.730000e+01 -3.230000e+01  0.000000e+00
     vertex -4.730000e+01 -3.230000e+01  0.000000e+00
     vertex -4.730000e+01  3.230000e+01  0.000000e+00
   endloop
 endfacet
 facet normal -0.000000e+00 -0.000000e+00 -1.000000e+00
   outer loop
     vertex  4.730000e+01  3.230000e+01  0.000000e+00
     vertex  4.730000e+01 -3.230000e+01  0.000000e+00
     vertex -4.730000e+01  3.230000e+01  0.000000e+00
   endloop
 endfacet
 facet normal  1.000000e+00  0.000000e+00  0.000000e+00
   outer loop
     vertex  4.730000e+01 -3.230000e+01  0.000000e+00
     vertex  4.730000e+01  3.230000e+01  0.000000e+00
     vertex  4.730000e+01  3.230000e+01  1.000000e+01
   endloop
 endfacet
 facet normal  1.000000e+00 -0.000000e+00  0.000000e+00
   outer loop
     vertex  4.730000e+01 -3.230000e+01  1.000000e+01
     vertex  4.730000e+01 -3.230000e+01  0.000000e+00
     vertex  4.730000e+01  3.230000e+01  1.000000e+01
   endloop
 endfacet
 facet normal  1.000000e+00  0.000000e+00  0.000000e+00
   outer loop
     vertex -4.460000e+01 -2.960000e+01  1.000000e+01
     vertex -4.460000e+01 -2.960000e+01  3.000000e+00
     vertex -4.460000e+01  2.960000e+01  3.000000e+00
   endloop
 endfacet
 facet normal  1.000000e+00 -0.000000e+00  0.000000e+00
   outer loop
     vertex -4.460000e+01 -2.960000e+01  1.000000e+01
     vertex -4.460000e+01  2.960000e+01  3.000000e+00
     vertex -4.460000e+01  2.960000e+01  1.000000e+01
   endloop
 endfacet
 facet normal  0.000000e+00  1.000000e+00  0.000000e+00
   outer loop
     vertex  4.460000e+01 -2.960000e+01  3.000000e+00
     vertex -4.460000e+01 -2.960000e+01  3.000000e+00
     vertex -4.460000e+01 -2.960000e+01  1.000000e+01
   endloop
 endfacet
 facet normal  0.000000e+00  1.000000e+00  0.000000e+00
   outer loop
     vertex  4.460000e+01 -2.960000e+01  1.000000e+01
     vertex  4.460000e+01 -2.960000e+01  3.000000e+00
     vertex -4.460000e+01 -2.960000e+01  1.000000e+01
   endloop
 endfacet
 facet normal -1.000000e+00  0.000000e+00  0.000000e+00
   outer loop
     vertex  4.460000e+01 -2.960000e+01  1.000000e+01
     vertex  4.460000e+01  2.960000e+01  3.000000e+00
     vertex  4.460000e+01 -2.960000e+01  3.000000e+00
   endloop
 endfacet
 facet normal -1.000000e+00  0.000000e+00  0.000000e+00
   outer loop
     vertex  4.460000e+01 -2.960000e+01  1.000000e+01
     vertex  4.460000e+01  2.960000e+01  1.000000e+01
     vertex  4.460000e+01  2.960000e+01  3.000000e+00
   endloop
 endfacet
 facet normal  0.000000e+00 -1.000000e+00  0.000000e+00
   outer loop
     vertex  4.460000e+01  2.960000e+01  3.000000e+00
     vertex -4.460000e+01  2.960000e+01  1.000000e+01
     vertex -4.460000e+01  2.960000e+01  3.000000e+00
   endloop
 endfacet
 facet normal -0.000000e+00 -1.000000e+00 -0.000000e+00
   outer loop
     vertex  4.460000e+01  2.960000e+01  1.000000e+01
     vertex -4.460000e+01  2.960000e+01  1.000000e+01
     vertex  4.460000e+01  2.960000e+01  3.000000e+00
   endloop
 endfacet
 facet normal  0.000000e+00  0.000000e+00  1.000000e+00
   outer loop
     vertex  4.460000e+01  2.960000e+01  3.000000e+00
     vertex -4.460000e+01  2.960000e+01  3.000000e+00
     vertex -4.460000e+01 -2.960000e+01  3.000000e+00
   endloop
 endfacet
 facet normal  0.000000e+00  0.000000e+00  1.000000e+00
   outer loop
     vertex  4.460000e+01  2.960000e+01  3.000000e+00
     vertex -4.460000e+01 -2.960000e+01  3.000000e+00
     vertex  4.460000e+01 -2.960000e+01  3.000000e+00
   endloop
 endfacet
endsolid
