solid CadrixAI_v2_ca75baa6f147
 facet normal -1.000000e+00  0.000000e+00  0.000000e+00
   outer loop
     vertex -7.500000e+01  1.500000e+00  5.000000e+00
     vertex -7.500000e+01  1.200000e+01  5.000000e+00
     vertex -7.500000e+01  1.200000e+01  0.000000e+00
   endloop
 endfacet
 facet normal -1.000000e+00  0.000000e+00  0.000000e+00
   outer loop
     vertex -7.500000e+01 -1.500000e+00  5.000000e+00
     vertex -7.500000e+01  1.500000e+00  5.000000e+00
     vertex -7.500000e+01  1.200000e+01  0.000000e+00
   endloop
 endfacet
 facet normal -1.000000e+00  0.000000e+00  0.000000e+00
   outer loop
     vertex -7.500000e+01 -1.200000e+01  0.000000e+00
     vertex -7.500000e+01 -1.500000e+00  5.000000e+00
     vertex -7.500000e+01  1.200000e+01  0.000000e+00
   endloop
 endfacet
 facet normal -1.000000e+00  0.000000e+00  0.000000e+00
   outer loop
     vertex -7.500000e+01 -1.200000e+01  5.000000e+00
     vertex -7.500000e+01 -1.500000e+00  5.000000e+00
     vertex -7.500000e+01 -1.200000e+01  0.000000e+00
   endloop
 endfacet
 facet normal -1.000000e+00  0.000000e+00  0.000000e+00
   outer loop
     vertex -7.500000e+01 -1.500000e+00  4.500000e+01
     vertex -7.500000e+01  1.500000e+00  4.500000e+01
     vertex -7.500000e+01  1.500000e+00  5.000000e+00
   endloop
 endfacet
 facet normal -1.000000e+00  0.000000e+00  0.000000e+00
   outer loop
     vertex -7.500000e+01 -1.500000e+00  4.500000e+01
     vertex -7.500000e+01  1.500000e+00  5.000000e+00
     vertex -7.500000e+01 -1.500000e+00  5.000000e+00
   endloop
 endfacet
 facet normal  0.000000e+00 -1.000000e+00  0.000000e+00
   outer loop
     vertex  7.500000e+01 -1.200000e+01  0.000000e+00
     vertex -7.500000e+01 -1.200000e+01  5.000000e+00
     vertex -7.500000e+01 -1.200000e+01  0.000000e+00
   endloop
 endfacet
 facet normal -0.000000e+00 -1.000000e+00 -0.000000e+00
   outer loop
     vertex  7.500000e+01 -1.200000e+01  5.000000e+00
     vertex -7.500000e+01 -1.200000e+01  5.000000e+00
     vertex  7.500000e+01 -1.200000e+01  0.000000e+00
   endloop
 endfacet
 facet normal  0.000000e+00  0.000000e+00  1.000000e+00
   outer loop
     vertex  7.500000e+01 -1.500000e+00  5.000000e+00
     vertex -7.500000e+01 -1.500000e+00  5.000000e+00
     vertex -7.500000e+01 -1.200000e+01  5.000000e+00
   endloop
 endfacet
 facet normal  0.000000e+00  0.000000e+00  1.000000e+00
   outer loop
     vertex  7.500000e+01 -1.500000e+00  5.000000e+00
     vertex -7.500000e+01 -1.200000e+01  5.000000e+00
     vertex  7.500000e+01 -1.200000e+01  5.000000e+00
   endloop
 endfacet
 facet normal  0.000000e+00  0.000000e+00  1.000000e+00
   outer loop
     vertex  7.500000e+01  1.200000e+01  5.000000e+00
     vertex -7.500000e+01  1.200000e+01  5.000000e+00
     vertex -7.500000e+01  1.500000e+00  5.000000e+00
   endloop
 endfacet
 facet normal  0.000000e+00  0.000000e+00  1.000000e+00
   outer loop
     vertex  7.500000e+01  1.200000e+01  5.000000e+00
     vertex -7.500000e+01  1.500000e+00  5.000000e+00
     vertex  7.500000e+01  1.500000e+00  5.000000e+00
   endloop
 endfacet
 facet normal  0.000000e+00  1.000000e+00  0.000000e+00
   outer loop
     vertex  7.500000e+01  1.200000e+01  0.000000e+00
     vertex -7.500000e+01  1.200000e+01  0.000000e+00
     vertex -7.500000e+01  1.200000e+01  5.000000e+00
   endloop
 endfacet
 facet normal  0.000000e+00  1.000000e+00  0.000000e+00
   outer loop
     vertex  7.500000e+01  1.200000e+01  5.000000e+00
     vertex  7.500000e+01  1.200000e+01  0.000000e+00
     vertex -7.500000e+01  1.200000e+01  5.000000e+00
   endloop
 endfacet
 facet normal -0.000000e+00  0.000000e+00 -1.000000e+00
   outer loop
     vertex  7.500000e+01  1.200000e+01  0.000000e+00
     vertex -7.500000e+01 -1.200000e+01  0.000000e+00
     vertex -7.500000e+01  1.200000e+01  0.000000e+00
   endloop
 endfacet
 facet normal  0.000000e+00 -0.000000e+00 -1.000000e+00
   outer loop
     vertex  7.500000e+01  1.200000e+01  0.000000e+00
     vertex  7.500000e+01 -1.200000e+01  0.000000e+00
     vertex -7.500000e+01 -1.200000e+01  0.000000e+00
   endloop
 endfacet
 facet normal  1.000000e+00 -0.000000e+00  0.000000e+00
   outer loop
     vertex  7.500000e+01  1.500000e+00  5.000000e+00
     vertex  7.500000e+01  1.200000e+01  0.000000e+00
     vertex  7.500000e+01  1.200000e+01  5.000000e+00
   endloop
 endfacet
 facet normal  1.000000e+00 -0.000000e+00  0.000000e+00
   outer loop
     vertex  7.500000e+01 -1.500000e+00  5.000000e+00
     vertex  7.500000e+01  1.200000e+01  0.000000e+00
     vertex  7.500000e+01  1.500000e+00  5.000000e+00
   endloop
 endfacet
 facet normal  1.000000e+00  0.000000e+00  0.000000e+00
   outer loop
     vertex  7.500000e+01 -1.200000e+01  0.000000e+00
     vertex  7.500000e+01  1.200000e+01  0.000000e+00
     vertex  7.500000e+01 -1.500000e+00  5.000000e+00
   endloop
 endfacet
 facet normal  1.000000e+00 -0.000000e+00  0.000000e+00
   outer loop
     vertex  7.500000e+01 -1.200000e+01  5.000000e+00
     vertex  7.500000e+01 -1.200000e+01  0.000000e+00
     vertex  7.500000e+01 -1.500000e+00  5.000000e+00
   endloop
 endfacet
 facet normal  1.000000e+00 -0.000000e+00  0.000000e+00
   outer loop
     vertex  7.500000e+01 -1.500000e+00  4.500000e+01
     vertex  7.500000e+01  1.500000e+00  5.000000e+00
     vertex  7.500000e+01  1.500000e+00  4.500000e+01
   endloop
 endfacet
 facet normal  1.000000e+00  0.000000e+00  0.000000e+00
   outer loop
     vertex  7.500000e+01 -1.500000e+00  4.500000e+01
     vertex  7.500000e+01 -1.500000e+00  5.000000e+00
     vertex  7.500000e+01  1.500000e+00  5.000000e+00
   endloop
 endfacet
 facet normal  0.000000e+00 -1.000000e+00 -0.000000e+00
   outer loop
     vertex  7.500000e+01 -1.500000e+00  4.500000e+01
     vertex -7.500000e+01 -1.500000e+00  5.000000e+00
     vertex  7.500000e+01 -1.500000e+00  5.000000e+00
   endloop
 endfacet
 facet normal -0.000000e+00 -1.000000e+00  0.000000e+00
   outer loop
     vertex  7.500000e+01 -1.500000e+00  4.500000e+01
     vertex -7.500000e+01 -1.500000e+00  4.500000e+01
     vertex -7.500000e+01 -1.500000e+00  5.000000e+00
   endloop
 endfacet
 facet normal  0.000000e+00  0.000000e+00  1.000000e+00
   outer loop
     vertex  7.500000e+01 -1.500000e+00  4.500000e+01
     vertex -7.500000e+01  1.500000e+00  4.500000e+01
     vertex -7.500000e+01 -1.500000e+00  4.500000e+01
   endloop
 endfacet
 facet normal  0.000000e+00  0.000000e+00  1.000000e+00
   outer loop
     vertex  7.500000e+01  1.500000e+00  4.500000e+01
     vertex -7.500000e+01  1.500000e+00  4.500000e+01
     vertex  7.500000e+01 -1.500000e+00  4.500000e+01
   endloop
 endfacet
 facet normal  0.000000e+00  1.000000e+00  0.000000e+00
   outer loop
     vertex  7.500000e+01  1.500000e+00  4.500000e+01
     vertex  7.500000e+01  1.500000e+00  5.000000e+00
     vertex -7.500000e+01  1.500000e+00  5.000000e+00
   endloop
 endfacet
 facet normal  0.000000e+00  1.000000e+00  0.000000e+00
   outer loop
     vertex  7.500000e+01  1.500000e+00  4.500000e+01
     vertex -7.500000e+01  1.500000e+00  5.000000e+00
     vertex -7.500000e+01  1.500000e+00  4.500000e+01
   endloop
 endfacet
endsolid
